%TF.GenerationSoftware,KiCad,Pcbnew,10.0.5*%
%TF.CreationDate,2026-08-18T19:31:56+01:00*%
%TF.ProjectId,leapsd,6c656170-7364-42e6-9b69-6361645f7063,rev?*%
%TF.SameCoordinates,Original*%
%TF.FileFunction,Legend,Top*%
%TF.FilePolarity,Positive*%
%FSLAX46Y46*%
G04 Gerber Fmt 4.6, Leading zero omitted, Abs format (unit mm)*
G04 Created by KiCad (PCBNEW 10.0.5) date 2026-08-18 19:31:56*
%MOMM*%
%LPD*%
G01*
G04 APERTURE LIST*
%ADD10C,0.150000*%
%ADD11C,0.120000*%
%ADD12C,0.010000*%
G04 APERTURE END LIST*
D10*
G36*
X173943422Y-46554155D02*
G01*
X173943422Y-45857025D01*
X173939193Y-45823163D01*
X173926798Y-45793328D01*
X173905808Y-45766472D01*
X173878459Y-45745503D01*
X173848676Y-45733206D01*
X173815500Y-45729042D01*
X173333425Y-45729042D01*
X173333425Y-45585000D01*
X173815927Y-45585000D01*
X173864608Y-45589164D01*
X173909740Y-45601423D01*
X173952092Y-45621819D01*
X173990853Y-45648846D01*
X174023543Y-45681399D01*
X174050644Y-45719944D01*
X174071121Y-45762118D01*
X174083451Y-45807281D01*
X174087647Y-45856231D01*
X174087647Y-46554155D01*
X173943422Y-46554155D01*
G37*
G36*
X173178453Y-46250012D02*
G01*
X173146701Y-46273570D01*
X173111455Y-46287549D01*
X173071536Y-46292327D01*
X172775575Y-46292327D01*
X172720976Y-46285400D01*
X172672199Y-46264972D01*
X172630325Y-46232333D01*
X172598132Y-46190478D01*
X172577683Y-46141198D01*
X172570777Y-46086613D01*
X172570777Y-46066707D01*
X172577700Y-46012906D01*
X172598132Y-45964858D01*
X172630320Y-45923603D01*
X172672260Y-45891097D01*
X172721193Y-45870108D01*
X172775819Y-45863009D01*
X172996614Y-45863009D01*
X172996614Y-46007051D01*
X172774598Y-46007051D01*
X172751705Y-46011472D01*
X172732161Y-46024820D01*
X172719319Y-46044351D01*
X172715002Y-46067807D01*
X172715002Y-46086919D01*
X172719346Y-46110900D01*
X172732161Y-46130516D01*
X172751705Y-46143864D01*
X172774598Y-46148285D01*
X173078802Y-46148285D01*
X173078802Y-45785034D01*
X173074842Y-45763487D01*
X173063049Y-45745467D01*
X173045567Y-45733140D01*
X173024702Y-45729042D01*
X172620908Y-45729042D01*
X172620908Y-45585000D01*
X173024336Y-45585000D01*
X173076991Y-45591887D01*
X173124353Y-45612294D01*
X173164879Y-45643660D01*
X173196283Y-45684712D01*
X173216274Y-45731904D01*
X173223028Y-45784363D01*
X173223028Y-46146209D01*
X173218046Y-46184878D01*
X173203397Y-46219075D01*
X173178453Y-46250012D01*
G37*
G36*
X172394800Y-46166053D02*
G01*
X172369272Y-46201763D01*
X172338565Y-46232355D01*
X172302232Y-46258194D01*
X172262264Y-46277082D01*
X172219577Y-46288458D01*
X172173455Y-46292327D01*
X171777476Y-46292327D01*
X171777476Y-45585000D01*
X171921702Y-45585000D01*
X171921702Y-46148285D01*
X172173577Y-46148285D01*
X172202973Y-46144676D01*
X172229019Y-46134088D01*
X172252590Y-46116167D01*
X172270956Y-46092682D01*
X172281801Y-46066589D01*
X172285501Y-46036971D01*
X172285501Y-45841699D01*
X172281804Y-45812119D01*
X172270961Y-45786024D01*
X172252590Y-45762503D01*
X172228960Y-45743781D01*
X172202923Y-45732780D01*
X172173577Y-45729042D01*
X172004073Y-45729042D01*
X172004073Y-45585000D01*
X172173333Y-45585000D01*
X172219464Y-45588939D01*
X172262187Y-45600530D01*
X172302232Y-45619804D01*
X172338490Y-45645288D01*
X172369202Y-45675881D01*
X172394800Y-45712006D01*
X172414148Y-45751898D01*
X172425776Y-45794437D01*
X172429727Y-45840355D01*
X172429727Y-46038375D01*
X172425767Y-46084243D01*
X172414131Y-46126550D01*
X172394800Y-46166053D01*
G37*
G36*
X171579212Y-46250012D02*
G01*
X171548800Y-46273645D01*
X171515174Y-46287580D01*
X171477180Y-46292327D01*
X171225732Y-46292327D01*
X171179649Y-46288460D01*
X171136961Y-46277086D01*
X171096955Y-46258194D01*
X171060544Y-46232375D01*
X171029605Y-46201782D01*
X171003715Y-46166053D01*
X170984805Y-46126592D01*
X170973404Y-46084279D01*
X170969521Y-46038375D01*
X170969521Y-45840355D01*
X170973401Y-45794404D01*
X170984814Y-45751860D01*
X171003776Y-45712006D01*
X171029736Y-45675862D01*
X171060679Y-45645269D01*
X171097016Y-45619804D01*
X171137060Y-45600528D01*
X171179763Y-45588937D01*
X171225854Y-45585000D01*
X171395175Y-45585000D01*
X171395175Y-45729042D01*
X171225671Y-45729042D01*
X171195881Y-45732799D01*
X171169629Y-45743817D01*
X171145986Y-45762503D01*
X171128017Y-45785976D01*
X171117380Y-45812074D01*
X171113746Y-45841699D01*
X171113746Y-46036971D01*
X171117383Y-46066634D01*
X171128023Y-46092730D01*
X171145986Y-46116167D01*
X171169534Y-46134048D01*
X171195792Y-46144655D01*
X171225671Y-46148285D01*
X171477546Y-46148285D01*
X171477546Y-45321217D01*
X171621771Y-45321217D01*
X171621771Y-46148224D01*
X171617003Y-46186117D01*
X171602995Y-46219660D01*
X171579212Y-46250012D01*
G37*
G36*
X170777973Y-46453954D02*
G01*
X170745479Y-46495043D01*
X170704151Y-46526861D01*
X170656115Y-46547249D01*
X170602363Y-46554155D01*
X170444521Y-46554155D01*
X170444521Y-46410113D01*
X170602363Y-46410113D01*
X170625121Y-46405916D01*
X170644006Y-46393443D01*
X170657373Y-46374237D01*
X170661775Y-46351922D01*
X170661775Y-46292327D01*
X170440613Y-46292327D01*
X170440613Y-46148285D01*
X170661775Y-46148285D01*
X170661775Y-45585000D01*
X170806000Y-45585000D01*
X170806000Y-46351739D01*
X170798900Y-46405903D01*
X170777973Y-46453954D01*
G37*
G36*
X170311958Y-46194019D02*
G01*
X170279481Y-46234480D01*
X170238136Y-46265704D01*
X170190139Y-46285580D01*
X170136348Y-46292327D01*
X169978506Y-46292327D01*
X169978506Y-46148285D01*
X170136348Y-46148285D01*
X170159129Y-46144155D01*
X170177991Y-46131920D01*
X170191353Y-46113094D01*
X170195760Y-46091010D01*
X170195760Y-45585000D01*
X170339985Y-45585000D01*
X170339985Y-46094368D01*
X170332929Y-46146749D01*
X170311958Y-46194019D01*
G37*
G36*
X169660833Y-45588937D02*
G01*
X169703332Y-45600526D01*
X169743178Y-45619804D01*
X169779266Y-45645283D01*
X169809816Y-45675873D01*
X169835257Y-45712006D01*
X169854534Y-45751891D01*
X169866124Y-45794431D01*
X169870062Y-45840355D01*
X169870062Y-46036971D01*
X169866125Y-46082896D01*
X169854536Y-46125457D01*
X169835257Y-46165382D01*
X169809846Y-46201520D01*
X169779295Y-46232323D01*
X169743178Y-46258194D01*
X169703370Y-46277086D01*
X169660866Y-46288460D01*
X169614950Y-46292327D01*
X169460772Y-46292327D01*
X169414897Y-46288461D01*
X169372413Y-46277088D01*
X169332605Y-46258194D01*
X169296443Y-46232349D01*
X169265661Y-46201545D01*
X169239854Y-46165382D01*
X169220961Y-46125495D01*
X169209588Y-46082929D01*
X169205721Y-46036971D01*
X169205721Y-45841699D01*
X169349947Y-45841699D01*
X169349947Y-46035628D01*
X169353549Y-46065286D01*
X169364121Y-46091619D01*
X169382003Y-46115495D01*
X169405438Y-46133795D01*
X169431451Y-46144599D01*
X169460955Y-46148285D01*
X169614828Y-46148285D01*
X169643928Y-46144616D01*
X169669747Y-46133829D01*
X169693169Y-46115495D01*
X169711417Y-46091576D01*
X169722176Y-46065246D01*
X169725836Y-46035628D01*
X169725836Y-45841699D01*
X169722162Y-45812102D01*
X169711394Y-45786007D01*
X169693169Y-45762503D01*
X169669699Y-45743765D01*
X169643884Y-45732774D01*
X169614828Y-45729042D01*
X169460955Y-45729042D01*
X169431496Y-45732791D01*
X169405486Y-45743799D01*
X169382003Y-45762503D01*
X169364144Y-45785964D01*
X169353563Y-45812062D01*
X169349947Y-45841699D01*
X169205721Y-45841699D01*
X169205721Y-45840355D01*
X169209589Y-45794398D01*
X169220963Y-45751854D01*
X169239854Y-45712006D01*
X169265690Y-45675848D01*
X169296473Y-45645257D01*
X169332605Y-45619804D01*
X169372450Y-45600524D01*
X169414930Y-45588936D01*
X169460772Y-45585000D01*
X169614950Y-45585000D01*
X169660833Y-45588937D01*
G37*
G36*
X169019364Y-46166053D02*
G01*
X168993836Y-46201763D01*
X168963128Y-46232355D01*
X168926796Y-46258194D01*
X168886828Y-46277082D01*
X168844141Y-46288458D01*
X168798019Y-46292327D01*
X168546571Y-46292327D01*
X168508578Y-46287576D01*
X168474932Y-46273623D01*
X168444477Y-46249951D01*
X168420769Y-46219569D01*
X168406798Y-46185985D01*
X168402040Y-46148040D01*
X168402040Y-45575596D01*
X168405915Y-45529560D01*
X168417310Y-45486955D01*
X168436234Y-45447063D01*
X168462232Y-45410833D01*
X168493178Y-45380180D01*
X168529474Y-45354678D01*
X168569522Y-45335367D01*
X168612225Y-45323757D01*
X168658312Y-45319813D01*
X169008434Y-45319813D01*
X169008434Y-45463855D01*
X168660083Y-45463855D01*
X168629905Y-45467552D01*
X168603239Y-45478387D01*
X168579177Y-45496706D01*
X168560797Y-45519839D01*
X168549961Y-45545545D01*
X168546266Y-45574741D01*
X168546266Y-46148285D01*
X168798141Y-46148285D01*
X168827537Y-46144676D01*
X168853583Y-46134088D01*
X168877154Y-46116167D01*
X168895520Y-46092682D01*
X168906365Y-46066589D01*
X168910065Y-46036971D01*
X168910065Y-45841027D01*
X168906386Y-45811891D01*
X168895561Y-45786011D01*
X168877154Y-45762503D01*
X168853524Y-45743781D01*
X168827487Y-45732780D01*
X168798141Y-45729042D01*
X168628636Y-45729042D01*
X168628636Y-45585000D01*
X168797897Y-45585000D01*
X168844028Y-45588939D01*
X168886750Y-45600530D01*
X168926796Y-45619804D01*
X168963054Y-45645288D01*
X168993766Y-45675881D01*
X169019364Y-45712006D01*
X169038690Y-45751471D01*
X169050329Y-45793777D01*
X169054291Y-45839684D01*
X169054291Y-46038375D01*
X169050331Y-46084243D01*
X169038695Y-46126550D01*
X169019364Y-46166053D01*
G37*
G36*
X167796318Y-46437773D02*
G01*
X167758483Y-46485444D01*
X167708696Y-46522831D01*
X167671200Y-46540148D01*
X167631079Y-46550597D01*
X167587673Y-46554155D01*
X167084106Y-46554155D01*
X167084106Y-46410113D01*
X167587796Y-46410113D01*
X167624723Y-46403219D01*
X167656184Y-46382513D01*
X167677734Y-46352410D01*
X167684943Y-46315774D01*
X167684943Y-46249706D01*
X167677904Y-46216826D01*
X167656245Y-46188463D01*
X167624882Y-46169277D01*
X167587796Y-46162817D01*
X167277790Y-46162817D01*
X167233946Y-46159230D01*
X167193567Y-46148712D01*
X167155974Y-46131310D01*
X167106658Y-46093826D01*
X167068413Y-46045886D01*
X167050575Y-46008750D01*
X167039867Y-45969301D01*
X167036234Y-45926878D01*
X167036234Y-45820938D01*
X167039874Y-45778485D01*
X167050574Y-45739268D01*
X167068352Y-45702602D01*
X167106713Y-45654244D01*
X167155913Y-45617178D01*
X167193543Y-45599392D01*
X167233917Y-45588657D01*
X167277729Y-45585000D01*
X167828436Y-45585000D01*
X167828436Y-45729042D01*
X167277607Y-45729042D01*
X167240114Y-45735905D01*
X167208486Y-45756397D01*
X167187444Y-45786017D01*
X167180460Y-45821304D01*
X167180460Y-45925901D01*
X167187422Y-45961305D01*
X167208486Y-45991481D01*
X167240110Y-46011925D01*
X167277607Y-46018775D01*
X167587612Y-46018775D01*
X167631019Y-46022332D01*
X167671161Y-46032780D01*
X167708696Y-46050099D01*
X167743299Y-46073100D01*
X167772320Y-46100651D01*
X167796257Y-46133080D01*
X167814529Y-46169185D01*
X167825464Y-46207506D01*
X167829169Y-46248729D01*
X167829169Y-46320109D01*
X167825456Y-46362239D01*
X167814526Y-46401227D01*
X167796318Y-46437773D01*
G37*
G36*
X166861967Y-46554155D02*
G01*
X166344294Y-46554155D01*
X166294619Y-46549987D01*
X166248549Y-46537721D01*
X166205320Y-46517336D01*
X166166468Y-46489952D01*
X166133528Y-46457378D01*
X166106035Y-46419211D01*
X166085560Y-46376561D01*
X166073228Y-46330927D01*
X166069032Y-46281519D01*
X166069032Y-45857025D01*
X166213258Y-45857025D01*
X166213258Y-46280847D01*
X166217592Y-46315509D01*
X166230244Y-46345748D01*
X166251604Y-46372683D01*
X166279046Y-46393507D01*
X166309727Y-46405876D01*
X166344722Y-46410113D01*
X166717741Y-46410113D01*
X166717741Y-45729042D01*
X166344722Y-45729042D01*
X166309727Y-45733278D01*
X166279046Y-45745647D01*
X166251604Y-45766472D01*
X166230174Y-45793380D01*
X166217556Y-45823212D01*
X166213258Y-45857025D01*
X166069032Y-45857025D01*
X166069032Y-45854888D01*
X166073216Y-45806384D01*
X166085535Y-45761437D01*
X166106035Y-45719272D01*
X166133559Y-45681116D01*
X166166499Y-45648775D01*
X166205320Y-45621819D01*
X166248549Y-45601434D01*
X166294619Y-45589167D01*
X166344294Y-45585000D01*
X166861967Y-45585000D01*
X166861967Y-46554155D01*
G37*
G36*
X164830843Y-46554155D02*
G01*
X164830843Y-46410113D01*
X165339235Y-46410113D01*
X165339235Y-45585000D01*
X165483460Y-45585000D01*
X165483460Y-46554155D01*
X164830843Y-46554155D01*
G37*
G36*
X164830843Y-46162817D02*
G01*
X164830843Y-46018775D01*
X165256803Y-46018775D01*
X165256803Y-46162817D01*
X164830843Y-46162817D01*
G37*
G36*
X164522487Y-46554155D02*
G01*
X164522487Y-45585000D01*
X164666712Y-45585000D01*
X164666712Y-46554155D01*
X164522487Y-46554155D01*
G37*
G36*
X164331855Y-46166053D02*
G01*
X164306328Y-46201763D01*
X164275620Y-46232355D01*
X164239287Y-46258194D01*
X164199319Y-46277082D01*
X164156632Y-46288458D01*
X164110510Y-46292327D01*
X163714531Y-46292327D01*
X163714531Y-45585000D01*
X163858757Y-45585000D01*
X163858757Y-46148285D01*
X164110632Y-46148285D01*
X164140028Y-46144676D01*
X164166074Y-46134088D01*
X164189645Y-46116167D01*
X164208011Y-46092682D01*
X164218856Y-46066589D01*
X164222557Y-46036971D01*
X164222557Y-45841699D01*
X164218859Y-45812119D01*
X164208016Y-45786024D01*
X164189645Y-45762503D01*
X164166015Y-45743781D01*
X164139978Y-45732780D01*
X164110632Y-45729042D01*
X163941128Y-45729042D01*
X163941128Y-45585000D01*
X164110388Y-45585000D01*
X164156519Y-45588939D01*
X164199242Y-45600530D01*
X164239287Y-45619804D01*
X164275545Y-45645288D01*
X164306257Y-45675881D01*
X164331855Y-45712006D01*
X164351203Y-45751898D01*
X164362832Y-45794437D01*
X164366782Y-45840355D01*
X164366782Y-46038375D01*
X164362822Y-46084243D01*
X164351186Y-46126550D01*
X164331855Y-46166053D01*
G37*
G36*
X163530861Y-46194202D02*
G01*
X163498396Y-46234604D01*
X163457099Y-46265765D01*
X163409167Y-46285594D01*
X163355433Y-46292327D01*
X162940587Y-46292327D01*
X162940587Y-46148285D01*
X163355250Y-46148285D01*
X163378098Y-46144346D01*
X163396894Y-46132775D01*
X163410264Y-46114841D01*
X163414601Y-46094307D01*
X163414601Y-46077454D01*
X163410217Y-46056348D01*
X163396833Y-46038314D01*
X163378027Y-46026227D01*
X163355189Y-46022133D01*
X163097208Y-46022133D01*
X163042856Y-46015348D01*
X162994870Y-45995450D01*
X162953692Y-45963538D01*
X162921780Y-45922787D01*
X162901395Y-45875335D01*
X162894486Y-45822098D01*
X162894486Y-45785034D01*
X162901372Y-45732432D01*
X162921780Y-45685078D01*
X162953777Y-45643877D01*
X162994870Y-45612416D01*
X163042952Y-45591957D01*
X163097269Y-45585000D01*
X163526648Y-45585000D01*
X163526648Y-45729042D01*
X163098001Y-45729042D01*
X163075130Y-45733192D01*
X163055747Y-45745589D01*
X163042955Y-45763777D01*
X163038711Y-45785340D01*
X163038711Y-45821121D01*
X163042986Y-45843262D01*
X163055747Y-45861543D01*
X163075130Y-45873941D01*
X163098001Y-45878091D01*
X163355678Y-45878091D01*
X163409309Y-45884983D01*
X163457222Y-45905324D01*
X163498407Y-45936603D01*
X163530861Y-45977559D01*
X163551784Y-46024713D01*
X163558827Y-46077027D01*
X163558827Y-46094063D01*
X163551762Y-46146957D01*
X163530861Y-46194202D01*
G37*
G36*
X162591991Y-46554155D02*
G01*
X162591991Y-46292327D01*
X162369425Y-46292327D01*
X162321155Y-46288445D01*
X162276555Y-46277051D01*
X162234908Y-46258194D01*
X162196917Y-46232253D01*
X162164995Y-46201645D01*
X162138615Y-46166053D01*
X162118947Y-46126091D01*
X162107145Y-46083555D01*
X162103139Y-46037704D01*
X162103139Y-45585000D01*
X162247365Y-45585000D01*
X162247365Y-46035628D01*
X162251295Y-46064157D01*
X162263060Y-46090268D01*
X162283513Y-46114823D01*
X162309661Y-46133520D01*
X162338057Y-46144546D01*
X162369547Y-46148285D01*
X162591991Y-46148285D01*
X162591991Y-45585000D01*
X162736217Y-45585000D01*
X162736217Y-46554155D01*
X162591991Y-46554155D01*
G37*
G36*
X161492044Y-46419211D02*
G01*
X161463760Y-46457430D01*
X161430355Y-46490004D01*
X161391416Y-46517336D01*
X161348179Y-46537699D01*
X161301911Y-46549976D01*
X161251831Y-46554155D01*
X160742218Y-46554155D01*
X160742218Y-46410113D01*
X161252014Y-46410113D01*
X161287473Y-46405872D01*
X161318581Y-46393494D01*
X161346414Y-46372683D01*
X161368177Y-46345699D01*
X161381034Y-46315463D01*
X161385432Y-46280847D01*
X161385432Y-45854949D01*
X161381096Y-45822131D01*
X161368305Y-45792985D01*
X161346414Y-45766472D01*
X161318581Y-45745661D01*
X161287473Y-45733283D01*
X161252014Y-45729042D01*
X160742218Y-45729042D01*
X160742218Y-45585000D01*
X161251831Y-45585000D01*
X161301944Y-45589108D01*
X161348216Y-45601169D01*
X161391416Y-45621147D01*
X161430323Y-45648052D01*
X161463728Y-45680393D01*
X161492044Y-45718600D01*
X161512902Y-45760363D01*
X161525412Y-45804836D01*
X161529657Y-45852812D01*
X161529657Y-46281519D01*
X161525397Y-46330897D01*
X161512870Y-46376526D01*
X161492044Y-46419211D01*
G37*
G36*
X160558792Y-46166053D02*
G01*
X160533264Y-46201763D01*
X160502556Y-46232355D01*
X160466224Y-46258194D01*
X160426256Y-46277082D01*
X160383569Y-46288458D01*
X160337447Y-46292327D01*
X159941468Y-46292327D01*
X159941468Y-45585000D01*
X160085693Y-45585000D01*
X160085693Y-46148285D01*
X160337569Y-46148285D01*
X160366965Y-46144676D01*
X160393011Y-46134088D01*
X160416581Y-46116167D01*
X160434947Y-46092682D01*
X160445792Y-46066589D01*
X160449493Y-46036971D01*
X160449493Y-45841699D01*
X160445795Y-45812119D01*
X160434953Y-45786024D01*
X160416581Y-45762503D01*
X160392952Y-45743781D01*
X160366915Y-45732780D01*
X160337569Y-45729042D01*
X160168064Y-45729042D01*
X160168064Y-45585000D01*
X160337324Y-45585000D01*
X160383455Y-45588939D01*
X160426178Y-45600530D01*
X160466224Y-45619804D01*
X160502482Y-45645288D01*
X160533194Y-45675881D01*
X160558792Y-45712006D01*
X160578139Y-45751898D01*
X160589768Y-45794437D01*
X160593718Y-45840355D01*
X160593718Y-46038375D01*
X160589759Y-46084243D01*
X160578122Y-46126550D01*
X160558792Y-46166053D01*
G37*
G36*
X159749920Y-46194019D02*
G01*
X159717443Y-46234480D01*
X159676098Y-46265704D01*
X159628102Y-46285580D01*
X159574310Y-46292327D01*
X159416468Y-46292327D01*
X159416468Y-46148285D01*
X159574310Y-46148285D01*
X159597091Y-46144155D01*
X159615953Y-46131920D01*
X159629315Y-46113094D01*
X159633722Y-46091010D01*
X159633722Y-45585000D01*
X159777947Y-45585000D01*
X159777947Y-46094368D01*
X159770892Y-46146749D01*
X159749920Y-46194019D01*
G37*
G36*
X159227912Y-46292327D02*
G01*
X159227912Y-46554155D01*
X159083687Y-46554155D01*
X159083687Y-46292327D01*
X158868387Y-46292327D01*
X158868387Y-46148285D01*
X159083687Y-46148285D01*
X159083687Y-45785706D01*
X159079188Y-45764355D01*
X159065430Y-45746139D01*
X159046097Y-45733338D01*
X159022932Y-45729042D01*
X158868387Y-45729042D01*
X158868387Y-45585000D01*
X159025801Y-45585000D01*
X159079181Y-45591905D01*
X159126857Y-45612294D01*
X159167810Y-45643631D01*
X159200130Y-45684712D01*
X159220893Y-45732057D01*
X159227912Y-45785034D01*
X159227912Y-46148285D01*
X159321702Y-46148285D01*
X159321702Y-46292327D01*
X159227912Y-46292327D01*
G37*
G36*
X173346126Y-48054155D02*
G01*
X173346126Y-47910113D01*
X173956123Y-47910113D01*
X173956123Y-47229042D01*
X173346126Y-47229042D01*
X173346126Y-47085000D01*
X174100348Y-47085000D01*
X174100348Y-48054155D01*
X173346126Y-48054155D01*
G37*
G36*
X173346126Y-47662817D02*
G01*
X173346126Y-47518775D01*
X173873691Y-47518775D01*
X173873691Y-47662817D01*
X173346126Y-47662817D01*
G37*
G36*
X173153907Y-47665382D02*
G01*
X173128339Y-47701513D01*
X173097626Y-47732318D01*
X173061339Y-47758194D01*
X173021331Y-47777082D01*
X172978604Y-47788458D01*
X172932440Y-47792327D01*
X172763180Y-47792327D01*
X172763180Y-47648285D01*
X172932684Y-47648285D01*
X172962075Y-47644609D01*
X172988115Y-47633814D01*
X173011697Y-47615495D01*
X173030091Y-47591559D01*
X173040925Y-47565230D01*
X173044609Y-47535628D01*
X173044609Y-47340355D01*
X173040929Y-47311219D01*
X173030105Y-47285339D01*
X173011697Y-47261831D01*
X172988079Y-47243507D01*
X172962036Y-47232714D01*
X172932684Y-47229042D01*
X172680809Y-47229042D01*
X172680809Y-48054155D01*
X172536583Y-48054155D01*
X172536583Y-47228797D01*
X172541337Y-47191019D01*
X172555303Y-47157555D01*
X172579021Y-47127254D01*
X172609466Y-47103654D01*
X172643113Y-47089739D01*
X172681114Y-47085000D01*
X172932562Y-47085000D01*
X172978652Y-47088938D01*
X173021333Y-47100530D01*
X173061339Y-47119804D01*
X173097597Y-47145288D01*
X173128309Y-47175881D01*
X173153907Y-47212006D01*
X173173258Y-47251461D01*
X173184885Y-47293551D01*
X173188834Y-47339012D01*
X173188834Y-47536971D01*
X173184885Y-47582890D01*
X173173257Y-47625450D01*
X173153907Y-47665382D01*
G37*
G36*
X172363049Y-48047988D02*
G01*
X172334607Y-48067263D01*
X172300767Y-48073695D01*
X172266937Y-48067261D01*
X172238546Y-48047988D01*
X172219273Y-48019597D01*
X172212840Y-47985767D01*
X172219273Y-47951937D01*
X172238546Y-47923546D01*
X172266937Y-47904274D01*
X172300767Y-47897840D01*
X172334607Y-47904272D01*
X172363049Y-47923546D01*
X172382274Y-47951932D01*
X172388694Y-47985767D01*
X172382274Y-48019602D01*
X172363049Y-48047988D01*
G37*
G36*
X172228471Y-47792327D02*
G01*
X172228471Y-47085000D01*
X172372696Y-47085000D01*
X172372696Y-47792327D01*
X172228471Y-47792327D01*
G37*
G36*
X172005722Y-47792327D02*
G01*
X172005722Y-48054155D01*
X171861496Y-48054155D01*
X171861496Y-47792327D01*
X171646196Y-47792327D01*
X171646196Y-47648285D01*
X171861496Y-47648285D01*
X171861496Y-47285706D01*
X171856997Y-47264355D01*
X171843239Y-47246139D01*
X171823907Y-47233338D01*
X171800741Y-47229042D01*
X171646196Y-47229042D01*
X171646196Y-47085000D01*
X171803611Y-47085000D01*
X171856990Y-47091905D01*
X171904666Y-47112294D01*
X171945619Y-47143631D01*
X171977939Y-47184712D01*
X171998702Y-47232057D01*
X172005722Y-47285034D01*
X172005722Y-47648285D01*
X172099511Y-47648285D01*
X172099511Y-47792327D01*
X172005722Y-47792327D01*
G37*
G36*
X171469731Y-47750012D02*
G01*
X171437979Y-47773570D01*
X171402732Y-47787549D01*
X171362813Y-47792327D01*
X171066852Y-47792327D01*
X171012253Y-47785400D01*
X170963476Y-47764972D01*
X170921602Y-47732333D01*
X170889410Y-47690478D01*
X170868961Y-47641198D01*
X170862054Y-47586613D01*
X170862054Y-47566707D01*
X170868977Y-47512906D01*
X170889410Y-47464858D01*
X170921597Y-47423603D01*
X170963537Y-47391097D01*
X171012470Y-47370108D01*
X171067096Y-47363009D01*
X171287892Y-47363009D01*
X171287892Y-47507051D01*
X171065875Y-47507051D01*
X171042982Y-47511472D01*
X171023438Y-47524820D01*
X171010597Y-47544351D01*
X171006280Y-47567807D01*
X171006280Y-47586919D01*
X171010623Y-47610900D01*
X171023438Y-47630516D01*
X171042982Y-47643864D01*
X171065875Y-47648285D01*
X171370080Y-47648285D01*
X171370080Y-47285034D01*
X171366120Y-47263487D01*
X171354326Y-47245467D01*
X171336844Y-47233140D01*
X171315980Y-47229042D01*
X170912185Y-47229042D01*
X170912185Y-47085000D01*
X171315613Y-47085000D01*
X171368269Y-47091887D01*
X171415631Y-47112294D01*
X171456156Y-47143660D01*
X171487560Y-47184712D01*
X171507551Y-47231904D01*
X171514305Y-47284363D01*
X171514305Y-47646209D01*
X171509323Y-47684878D01*
X171494675Y-47719075D01*
X171469731Y-47750012D01*
G37*
G36*
X170686077Y-47665382D02*
G01*
X170660509Y-47701513D01*
X170629796Y-47732318D01*
X170593509Y-47758194D01*
X170553502Y-47777082D01*
X170510774Y-47788458D01*
X170464610Y-47792327D01*
X170295350Y-47792327D01*
X170295350Y-47648285D01*
X170464855Y-47648285D01*
X170494245Y-47644609D01*
X170520285Y-47633814D01*
X170543867Y-47615495D01*
X170562262Y-47591559D01*
X170573095Y-47565230D01*
X170576779Y-47535628D01*
X170576779Y-47340355D01*
X170573099Y-47311219D01*
X170562275Y-47285339D01*
X170543867Y-47261831D01*
X170520249Y-47243507D01*
X170494207Y-47232714D01*
X170464855Y-47229042D01*
X170212979Y-47229042D01*
X170212979Y-48054155D01*
X170068754Y-48054155D01*
X170068754Y-47228797D01*
X170073507Y-47191019D01*
X170087474Y-47157555D01*
X170111191Y-47127254D01*
X170141637Y-47103654D01*
X170175284Y-47089739D01*
X170213284Y-47085000D01*
X170464732Y-47085000D01*
X170510822Y-47088938D01*
X170553504Y-47100530D01*
X170593509Y-47119804D01*
X170629767Y-47145288D01*
X170660480Y-47175881D01*
X170686077Y-47212006D01*
X170705429Y-47251461D01*
X170717055Y-47293551D01*
X170721004Y-47339012D01*
X170721004Y-47536971D01*
X170717055Y-47582890D01*
X170705427Y-47625450D01*
X170686077Y-47665382D01*
G37*
G36*
X169484158Y-48054155D02*
G01*
X168971981Y-48054155D01*
X168927760Y-48050493D01*
X168887189Y-48039768D01*
X168849554Y-48022037D01*
X168815527Y-47998522D01*
X168786487Y-47970006D01*
X168762054Y-47936064D01*
X168744323Y-47898984D01*
X168733599Y-47858966D01*
X168729937Y-47815286D01*
X168729937Y-47751782D01*
X168736632Y-47690904D01*
X168755081Y-47644006D01*
X168784403Y-47607801D01*
X168741317Y-47572718D01*
X168713328Y-47533613D01*
X168697155Y-47486689D01*
X168691224Y-47425352D01*
X168691224Y-47320633D01*
X168835449Y-47320633D01*
X168835449Y-47427062D01*
X168842438Y-47462256D01*
X168863598Y-47492213D01*
X168894608Y-47512488D01*
X168932047Y-47519324D01*
X169257990Y-47519324D01*
X169257990Y-47663367D01*
X168972470Y-47663367D01*
X168934872Y-47670021D01*
X168902860Y-47689867D01*
X168881276Y-47718715D01*
X168874162Y-47753065D01*
X168874162Y-47814980D01*
X168881364Y-47851926D01*
X168902860Y-47882269D01*
X168934982Y-47903160D01*
X168972531Y-47910113D01*
X169339933Y-47910113D01*
X169339933Y-47229042D01*
X168931315Y-47229042D01*
X168893963Y-47235920D01*
X168863598Y-47256214D01*
X168842456Y-47285608D01*
X168835449Y-47320633D01*
X168691224Y-47320633D01*
X168691224Y-47318435D01*
X168694859Y-47276719D01*
X168705581Y-47237922D01*
X168723464Y-47201381D01*
X168761736Y-47153811D01*
X168811086Y-47116995D01*
X168848278Y-47099334D01*
X168888420Y-47088649D01*
X168932231Y-47085000D01*
X169484158Y-47085000D01*
X169484158Y-48054155D01*
G37*
G36*
X168237604Y-47302131D02*
G01*
X168049598Y-47792327D01*
X167890352Y-47792327D01*
X168266303Y-46819263D01*
X168424206Y-46819263D01*
X168314174Y-47108569D01*
X168574598Y-47792327D01*
X168421519Y-47792327D01*
X168237604Y-47302131D01*
G37*
G36*
X167387578Y-48054155D02*
G01*
X166875401Y-48054155D01*
X166831180Y-48050493D01*
X166790609Y-48039768D01*
X166752974Y-48022037D01*
X166718946Y-47998522D01*
X166689906Y-47970006D01*
X166665474Y-47936064D01*
X166647742Y-47898984D01*
X166637018Y-47858966D01*
X166633356Y-47815286D01*
X166633356Y-47751782D01*
X166640051Y-47690904D01*
X166658501Y-47644006D01*
X166687822Y-47607801D01*
X166644736Y-47572718D01*
X166616747Y-47533613D01*
X166600574Y-47486689D01*
X166594643Y-47425352D01*
X166594643Y-47320633D01*
X166738869Y-47320633D01*
X166738869Y-47427062D01*
X166745857Y-47462256D01*
X166767018Y-47492213D01*
X166798027Y-47512488D01*
X166835467Y-47519324D01*
X167161409Y-47519324D01*
X167161409Y-47663367D01*
X166875889Y-47663367D01*
X166838292Y-47670021D01*
X166806280Y-47689867D01*
X166784695Y-47718715D01*
X166777581Y-47753065D01*
X166777581Y-47814980D01*
X166784784Y-47851926D01*
X166806280Y-47882269D01*
X166838401Y-47903160D01*
X166875950Y-47910113D01*
X167243352Y-47910113D01*
X167243352Y-47229042D01*
X166834734Y-47229042D01*
X166797383Y-47235920D01*
X166767018Y-47256214D01*
X166745876Y-47285608D01*
X166738869Y-47320633D01*
X166594643Y-47320633D01*
X166594643Y-47318435D01*
X166598279Y-47276719D01*
X166609001Y-47237922D01*
X166626883Y-47201381D01*
X166665155Y-47153811D01*
X166714506Y-47116995D01*
X166751697Y-47099334D01*
X166791839Y-47088649D01*
X166835650Y-47085000D01*
X167387578Y-47085000D01*
X167387578Y-48054155D01*
G37*
G36*
X166292759Y-48054155D02*
G01*
X166292759Y-47085000D01*
X166436985Y-47085000D01*
X166436985Y-48054155D01*
X166292759Y-48054155D01*
G37*
G36*
X165985013Y-47792327D02*
G01*
X165985013Y-47343531D01*
X165981291Y-47313044D01*
X165970421Y-47286330D01*
X165952102Y-47262442D01*
X165928441Y-47243747D01*
X165902422Y-47232770D01*
X165873150Y-47229042D01*
X165621214Y-47229042D01*
X165621214Y-47792327D01*
X165476988Y-47792327D01*
X165476988Y-47228370D01*
X165481758Y-47190531D01*
X165495736Y-47157242D01*
X165519425Y-47127315D01*
X165549903Y-47103750D01*
X165583977Y-47089781D01*
X165622862Y-47085000D01*
X165873028Y-47085000D01*
X165919077Y-47088937D01*
X165961739Y-47100528D01*
X166001744Y-47119804D01*
X166038002Y-47145288D01*
X166068714Y-47175881D01*
X166094312Y-47212006D01*
X166113660Y-47251898D01*
X166125288Y-47294437D01*
X166129239Y-47340355D01*
X166129239Y-47792327D01*
X165985013Y-47792327D01*
G37*
G36*
X165255826Y-47792327D02*
G01*
X165255826Y-48054155D01*
X165111601Y-48054155D01*
X165111601Y-47792327D01*
X164896301Y-47792327D01*
X164896301Y-47648285D01*
X165111601Y-47648285D01*
X165111601Y-47285706D01*
X165107102Y-47264355D01*
X165093344Y-47246139D01*
X165074011Y-47233338D01*
X165050845Y-47229042D01*
X164896301Y-47229042D01*
X164896301Y-47085000D01*
X165053715Y-47085000D01*
X165107095Y-47091905D01*
X165154771Y-47112294D01*
X165195724Y-47143631D01*
X165228044Y-47184712D01*
X165248807Y-47232057D01*
X165255826Y-47285034D01*
X165255826Y-47648285D01*
X165349616Y-47648285D01*
X165349616Y-47792327D01*
X165255826Y-47792327D01*
G37*
G36*
X164737299Y-47666053D02*
G01*
X164711771Y-47701763D01*
X164681063Y-47732355D01*
X164644731Y-47758194D01*
X164604763Y-47777082D01*
X164562076Y-47788458D01*
X164515954Y-47792327D01*
X164119975Y-47792327D01*
X164119975Y-47085000D01*
X164264200Y-47085000D01*
X164264200Y-47648285D01*
X164516076Y-47648285D01*
X164545472Y-47644676D01*
X164571518Y-47634088D01*
X164595088Y-47616167D01*
X164613454Y-47592682D01*
X164624299Y-47566589D01*
X164628000Y-47536971D01*
X164628000Y-47341699D01*
X164624302Y-47312119D01*
X164613460Y-47286024D01*
X164595088Y-47262503D01*
X164571459Y-47243781D01*
X164545422Y-47232780D01*
X164516076Y-47229042D01*
X164346571Y-47229042D01*
X164346571Y-47085000D01*
X164515831Y-47085000D01*
X164561962Y-47088939D01*
X164604685Y-47100530D01*
X164644731Y-47119804D01*
X164680989Y-47145288D01*
X164711701Y-47175881D01*
X164737299Y-47212006D01*
X164756646Y-47251898D01*
X164768275Y-47294437D01*
X164772225Y-47340355D01*
X164772225Y-47538375D01*
X164768266Y-47584243D01*
X164756629Y-47626550D01*
X164737299Y-47666053D01*
G37*
G36*
X163913223Y-47750683D02*
G01*
X163882845Y-47773879D01*
X163849003Y-47787626D01*
X163810519Y-47792327D01*
X163560415Y-47792327D01*
X163514332Y-47788460D01*
X163471644Y-47777086D01*
X163431638Y-47758194D01*
X163395272Y-47732338D01*
X163364329Y-47701532D01*
X163338398Y-47665382D01*
X163319469Y-47625491D01*
X163308076Y-47582926D01*
X163304204Y-47536971D01*
X163304204Y-47085000D01*
X163448429Y-47085000D01*
X163448429Y-47533857D01*
X163452088Y-47564386D01*
X163462753Y-47591082D01*
X163480669Y-47614884D01*
X163504308Y-47633533D01*
X163530560Y-47644533D01*
X163560353Y-47648285D01*
X163812229Y-47648285D01*
X163812229Y-47085000D01*
X163956454Y-47085000D01*
X163956454Y-47648956D01*
X163951624Y-47686765D01*
X163937413Y-47720285D01*
X163913223Y-47750683D01*
G37*
G36*
X162997435Y-48054155D02*
G01*
X162997435Y-47522133D01*
X162948892Y-47522133D01*
X162692559Y-47792327D01*
X162505285Y-47792327D01*
X162828602Y-47450448D01*
X162476587Y-47085000D01*
X162678209Y-47085000D01*
X162961897Y-47378091D01*
X162997435Y-47378091D01*
X162997435Y-47085000D01*
X163141660Y-47085000D01*
X163141660Y-48054155D01*
X162997435Y-48054155D01*
G37*
G36*
X161901700Y-48054155D02*
G01*
X161553776Y-47085000D01*
X161707588Y-47085000D01*
X161813529Y-47378091D01*
X162084944Y-47378091D01*
X162032981Y-47522133D01*
X161865491Y-47522133D01*
X161991276Y-47866882D01*
X162275636Y-47085000D01*
X162429448Y-47085000D01*
X162081524Y-48054155D01*
X161901700Y-48054155D01*
G37*
G36*
X161300435Y-48054155D02*
G01*
X161300435Y-47085000D01*
X161444661Y-47085000D01*
X161444661Y-48054155D01*
X161300435Y-48054155D01*
G37*
G36*
X161102171Y-47750012D02*
G01*
X161071759Y-47773645D01*
X161038134Y-47787580D01*
X161000139Y-47792327D01*
X160748691Y-47792327D01*
X160702608Y-47788460D01*
X160659920Y-47777086D01*
X160619914Y-47758194D01*
X160583503Y-47732375D01*
X160552564Y-47701782D01*
X160526674Y-47666053D01*
X160507764Y-47626592D01*
X160496363Y-47584279D01*
X160492480Y-47538375D01*
X160492480Y-47340355D01*
X160496360Y-47294404D01*
X160507774Y-47251860D01*
X160526735Y-47212006D01*
X160552696Y-47175862D01*
X160583638Y-47145269D01*
X160619975Y-47119804D01*
X160660020Y-47100528D01*
X160702723Y-47088937D01*
X160748813Y-47085000D01*
X160918134Y-47085000D01*
X160918134Y-47229042D01*
X160748630Y-47229042D01*
X160718840Y-47232799D01*
X160692589Y-47243817D01*
X160668946Y-47262503D01*
X160650976Y-47285976D01*
X160640339Y-47312074D01*
X160636706Y-47341699D01*
X160636706Y-47536971D01*
X160640342Y-47566634D01*
X160650982Y-47592730D01*
X160668946Y-47616167D01*
X160692493Y-47634048D01*
X160718751Y-47644655D01*
X160748630Y-47648285D01*
X161000505Y-47648285D01*
X161000505Y-46821217D01*
X161144731Y-46821217D01*
X161144731Y-47648224D01*
X161139962Y-47686117D01*
X161125954Y-47719660D01*
X161102171Y-47750012D01*
G37*
G36*
X160184734Y-48054155D02*
G01*
X160184734Y-47792327D01*
X159962168Y-47792327D01*
X159913898Y-47788445D01*
X159869298Y-47777051D01*
X159827651Y-47758194D01*
X159789660Y-47732253D01*
X159757738Y-47701645D01*
X159731358Y-47666053D01*
X159711690Y-47626091D01*
X159699887Y-47583555D01*
X159695882Y-47537704D01*
X159695882Y-47085000D01*
X159840107Y-47085000D01*
X159840107Y-47535628D01*
X159844038Y-47564157D01*
X159855802Y-47590268D01*
X159876255Y-47614823D01*
X159902404Y-47633520D01*
X159930800Y-47644546D01*
X159962290Y-47648285D01*
X160184734Y-47648285D01*
X160184734Y-47085000D01*
X160328960Y-47085000D01*
X160328960Y-48054155D01*
X160184734Y-48054155D01*
G37*
G36*
X159504640Y-47666053D02*
G01*
X159479112Y-47701763D01*
X159448404Y-47732355D01*
X159412072Y-47758194D01*
X159372104Y-47777082D01*
X159329417Y-47788458D01*
X159283295Y-47792327D01*
X158887316Y-47792327D01*
X158887316Y-47085000D01*
X159031542Y-47085000D01*
X159031542Y-47648285D01*
X159283417Y-47648285D01*
X159312813Y-47644676D01*
X159338859Y-47634088D01*
X159362430Y-47616167D01*
X159380796Y-47592682D01*
X159391641Y-47566589D01*
X159395341Y-47536971D01*
X159395341Y-47341699D01*
X159391643Y-47312119D01*
X159380801Y-47286024D01*
X159362430Y-47262503D01*
X159338800Y-47243781D01*
X159312763Y-47232780D01*
X159283417Y-47229042D01*
X159113912Y-47229042D01*
X159113912Y-47085000D01*
X159283173Y-47085000D01*
X159329304Y-47088939D01*
X159372026Y-47100530D01*
X159412072Y-47119804D01*
X159448330Y-47145288D01*
X159479042Y-47175881D01*
X159504640Y-47212006D01*
X159523988Y-47251898D01*
X159535616Y-47294437D01*
X159539567Y-47340355D01*
X159539567Y-47538375D01*
X159535607Y-47584243D01*
X159523971Y-47626550D01*
X159504640Y-47666053D01*
G37*
G36*
X174172469Y-50666053D02*
G01*
X174146941Y-50701763D01*
X174116233Y-50732355D01*
X174079901Y-50758194D01*
X174039933Y-50777082D01*
X173997246Y-50788458D01*
X173951124Y-50792327D01*
X173699676Y-50792327D01*
X173661683Y-50787576D01*
X173628037Y-50773623D01*
X173597582Y-50749951D01*
X173573874Y-50719569D01*
X173559903Y-50685985D01*
X173555145Y-50648040D01*
X173555145Y-50075596D01*
X173559020Y-50029560D01*
X173570415Y-49986955D01*
X173589339Y-49947063D01*
X173615337Y-49910833D01*
X173646283Y-49880180D01*
X173682579Y-49854678D01*
X173722627Y-49835367D01*
X173765330Y-49823757D01*
X173811417Y-49819813D01*
X174161539Y-49819813D01*
X174161539Y-49963855D01*
X173813188Y-49963855D01*
X173783010Y-49967552D01*
X173756344Y-49978387D01*
X173732282Y-49996706D01*
X173713902Y-50019839D01*
X173703066Y-50045545D01*
X173699371Y-50074741D01*
X173699371Y-50648285D01*
X173951246Y-50648285D01*
X173980642Y-50644676D01*
X174006688Y-50634088D01*
X174030259Y-50616167D01*
X174048625Y-50592682D01*
X174059470Y-50566589D01*
X174063170Y-50536971D01*
X174063170Y-50341027D01*
X174059491Y-50311891D01*
X174048666Y-50286011D01*
X174030259Y-50262503D01*
X174006629Y-50243781D01*
X173980592Y-50232780D01*
X173951246Y-50229042D01*
X173781741Y-50229042D01*
X173781741Y-50085000D01*
X173951002Y-50085000D01*
X173997133Y-50088939D01*
X174039855Y-50100530D01*
X174079901Y-50119804D01*
X174116159Y-50145288D01*
X174146871Y-50175881D01*
X174172469Y-50212006D01*
X174191795Y-50251471D01*
X174203434Y-50293777D01*
X174207396Y-50339684D01*
X174207396Y-50538375D01*
X174203436Y-50584243D01*
X174191800Y-50626550D01*
X174172469Y-50666053D01*
G37*
G36*
X173381611Y-51047988D02*
G01*
X173353169Y-51067263D01*
X173319329Y-51073695D01*
X173285499Y-51067261D01*
X173257108Y-51047988D01*
X173237835Y-51019597D01*
X173231401Y-50985767D01*
X173237835Y-50951937D01*
X173257108Y-50923546D01*
X173285499Y-50904274D01*
X173319329Y-50897840D01*
X173353169Y-50904272D01*
X173381611Y-50923546D01*
X173400836Y-50951932D01*
X173407256Y-50985767D01*
X173400836Y-51019602D01*
X173381611Y-51047988D01*
G37*
G36*
X173247033Y-50792327D02*
G01*
X173247033Y-50085000D01*
X173391258Y-50085000D01*
X173391258Y-50792327D01*
X173247033Y-50792327D01*
G37*
G36*
X173024283Y-50792327D02*
G01*
X173024283Y-51054155D01*
X172880058Y-51054155D01*
X172880058Y-50792327D01*
X172664758Y-50792327D01*
X172664758Y-50648285D01*
X172880058Y-50648285D01*
X172880058Y-50285706D01*
X172875559Y-50264355D01*
X172861801Y-50246139D01*
X172842468Y-50233338D01*
X172819303Y-50229042D01*
X172664758Y-50229042D01*
X172664758Y-50085000D01*
X172822172Y-50085000D01*
X172875552Y-50091905D01*
X172923228Y-50112294D01*
X172964181Y-50143631D01*
X172996501Y-50184712D01*
X173017264Y-50232057D01*
X173024283Y-50285034D01*
X173024283Y-50648285D01*
X173118073Y-50648285D01*
X173118073Y-50792327D01*
X173024283Y-50792327D01*
G37*
G36*
X172388641Y-51054155D02*
G01*
X172388641Y-50792327D01*
X172166075Y-50792327D01*
X172117805Y-50788445D01*
X172073205Y-50777051D01*
X172031558Y-50758194D01*
X171993567Y-50732253D01*
X171961645Y-50701645D01*
X171935266Y-50666053D01*
X171915597Y-50626091D01*
X171903795Y-50583555D01*
X171899789Y-50537704D01*
X171899789Y-50085000D01*
X172044015Y-50085000D01*
X172044015Y-50535628D01*
X172047945Y-50564157D01*
X172059710Y-50590268D01*
X172080163Y-50614823D01*
X172106311Y-50633520D01*
X172134707Y-50644546D01*
X172166197Y-50648285D01*
X172388641Y-50648285D01*
X172388641Y-50085000D01*
X172532867Y-50085000D01*
X172532867Y-51054155D01*
X172388641Y-51054155D01*
G37*
G36*
X171591433Y-50792327D02*
G01*
X171591433Y-50343531D01*
X171587710Y-50313044D01*
X171576840Y-50286330D01*
X171558521Y-50262442D01*
X171534861Y-50243747D01*
X171508841Y-50232770D01*
X171479569Y-50229042D01*
X171227633Y-50229042D01*
X171227633Y-50792327D01*
X171083408Y-50792327D01*
X171083408Y-50228370D01*
X171088177Y-50190531D01*
X171102155Y-50157242D01*
X171125845Y-50127315D01*
X171156322Y-50103750D01*
X171190396Y-50089781D01*
X171229282Y-50085000D01*
X171479447Y-50085000D01*
X171525496Y-50088937D01*
X171568158Y-50100528D01*
X171608163Y-50119804D01*
X171644421Y-50145288D01*
X171675134Y-50175881D01*
X171700731Y-50212006D01*
X171720079Y-50251898D01*
X171731708Y-50294437D01*
X171735658Y-50340355D01*
X171735658Y-50792327D01*
X171591433Y-50792327D01*
G37*
G36*
X170784454Y-51054155D02*
G01*
X170784454Y-50229042D01*
X170532579Y-50229042D01*
X170502744Y-50232735D01*
X170476490Y-50243549D01*
X170452895Y-50261831D01*
X170434890Y-50285291D01*
X170424270Y-50311175D01*
X170420655Y-50340355D01*
X170420655Y-50535628D01*
X170424274Y-50565274D01*
X170434902Y-50591606D01*
X170452895Y-50615495D01*
X170476490Y-50633778D01*
X170502744Y-50644591D01*
X170532579Y-50648285D01*
X170702083Y-50648285D01*
X170702083Y-50792327D01*
X170532762Y-50792327D01*
X170486639Y-50788459D01*
X170443931Y-50777084D01*
X170403924Y-50758194D01*
X170367558Y-50732338D01*
X170336615Y-50701532D01*
X170310684Y-50665382D01*
X170291721Y-50625488D01*
X170280308Y-50582923D01*
X170276429Y-50536971D01*
X170276429Y-50339012D01*
X170280302Y-50293515D01*
X170291694Y-50251420D01*
X170310623Y-50212006D01*
X170336584Y-50175862D01*
X170367526Y-50145269D01*
X170403863Y-50119804D01*
X170443907Y-50100526D01*
X170486590Y-50088936D01*
X170532640Y-50085000D01*
X170784088Y-50085000D01*
X170822087Y-50089740D01*
X170855712Y-50103656D01*
X170886120Y-50127254D01*
X170909911Y-50157564D01*
X170923915Y-50191027D01*
X170928680Y-50228797D01*
X170928680Y-51054155D01*
X170784454Y-51054155D01*
G37*
G36*
X169257753Y-51138175D02*
G01*
X170017226Y-50057644D01*
X170181297Y-50057644D01*
X169421823Y-51138175D01*
X169257753Y-51138175D01*
G37*
G36*
X169150592Y-51054155D02*
G01*
X168638415Y-51054155D01*
X168594194Y-51050493D01*
X168553623Y-51039768D01*
X168515988Y-51022037D01*
X168481960Y-50998522D01*
X168452920Y-50970006D01*
X168428488Y-50936064D01*
X168410756Y-50898984D01*
X168400032Y-50858966D01*
X168396370Y-50815286D01*
X168396370Y-50751782D01*
X168403065Y-50690904D01*
X168421515Y-50644006D01*
X168450836Y-50607801D01*
X168407750Y-50572718D01*
X168379761Y-50533613D01*
X168363588Y-50486689D01*
X168357657Y-50425352D01*
X168357657Y-50320633D01*
X168501883Y-50320633D01*
X168501883Y-50427062D01*
X168508871Y-50462256D01*
X168530032Y-50492213D01*
X168561041Y-50512488D01*
X168598481Y-50519324D01*
X168924423Y-50519324D01*
X168924423Y-50663367D01*
X168638903Y-50663367D01*
X168601305Y-50670021D01*
X168569294Y-50689867D01*
X168547709Y-50718715D01*
X168540595Y-50753065D01*
X168540595Y-50814980D01*
X168547798Y-50851926D01*
X168569294Y-50882269D01*
X168601415Y-50903160D01*
X168638964Y-50910113D01*
X169006366Y-50910113D01*
X169006366Y-50229042D01*
X168597748Y-50229042D01*
X168560397Y-50235920D01*
X168530032Y-50256214D01*
X168508890Y-50285608D01*
X168501883Y-50320633D01*
X168357657Y-50320633D01*
X168357657Y-50318435D01*
X168361293Y-50276719D01*
X168372015Y-50237922D01*
X168389897Y-50201381D01*
X168428169Y-50153811D01*
X168477520Y-50116995D01*
X168514711Y-50099334D01*
X168554853Y-50088649D01*
X168598664Y-50085000D01*
X169150592Y-50085000D01*
X169150592Y-51054155D01*
G37*
G36*
X168055773Y-51054155D02*
G01*
X168055773Y-50085000D01*
X168199999Y-50085000D01*
X168199999Y-51054155D01*
X168055773Y-51054155D01*
G37*
G36*
X167748027Y-50792327D02*
G01*
X167748027Y-50343531D01*
X167744305Y-50313044D01*
X167733435Y-50286330D01*
X167715115Y-50262442D01*
X167691455Y-50243747D01*
X167665436Y-50232770D01*
X167636164Y-50229042D01*
X167384227Y-50229042D01*
X167384227Y-50792327D01*
X167240002Y-50792327D01*
X167240002Y-50228370D01*
X167244772Y-50190531D01*
X167258750Y-50157242D01*
X167282439Y-50127315D01*
X167312917Y-50103750D01*
X167346991Y-50089781D01*
X167385876Y-50085000D01*
X167636042Y-50085000D01*
X167682091Y-50088937D01*
X167724753Y-50100528D01*
X167764758Y-50119804D01*
X167801016Y-50145288D01*
X167831728Y-50175881D01*
X167857326Y-50212006D01*
X167876673Y-50251898D01*
X167888302Y-50294437D01*
X167892253Y-50340355D01*
X167892253Y-50792327D01*
X167748027Y-50792327D01*
G37*
G36*
X167018840Y-50792327D02*
G01*
X167018840Y-51054155D01*
X166874615Y-51054155D01*
X166874615Y-50792327D01*
X166659315Y-50792327D01*
X166659315Y-50648285D01*
X166874615Y-50648285D01*
X166874615Y-50285706D01*
X166870116Y-50264355D01*
X166856358Y-50246139D01*
X166837025Y-50233338D01*
X166813859Y-50229042D01*
X166659315Y-50229042D01*
X166659315Y-50085000D01*
X166816729Y-50085000D01*
X166870108Y-50091905D01*
X166917785Y-50112294D01*
X166958738Y-50143631D01*
X166991058Y-50184712D01*
X167011821Y-50232057D01*
X167018840Y-50285034D01*
X167018840Y-50648285D01*
X167112629Y-50648285D01*
X167112629Y-50792327D01*
X167018840Y-50792327D01*
G37*
G36*
X166500313Y-50666053D02*
G01*
X166474785Y-50701763D01*
X166444077Y-50732355D01*
X166407745Y-50758194D01*
X166367777Y-50777082D01*
X166325090Y-50788458D01*
X166278968Y-50792327D01*
X165882989Y-50792327D01*
X165882989Y-50085000D01*
X166027214Y-50085000D01*
X166027214Y-50648285D01*
X166279090Y-50648285D01*
X166308486Y-50644676D01*
X166334531Y-50634088D01*
X166358102Y-50616167D01*
X166376468Y-50592682D01*
X166387313Y-50566589D01*
X166391014Y-50536971D01*
X166391014Y-50341699D01*
X166387316Y-50312119D01*
X166376474Y-50286024D01*
X166358102Y-50262503D01*
X166334473Y-50243781D01*
X166308436Y-50232780D01*
X166279090Y-50229042D01*
X166109585Y-50229042D01*
X166109585Y-50085000D01*
X166278845Y-50085000D01*
X166324976Y-50088939D01*
X166367699Y-50100530D01*
X166407745Y-50119804D01*
X166444002Y-50145288D01*
X166474715Y-50175881D01*
X166500313Y-50212006D01*
X166519660Y-50251898D01*
X166531289Y-50294437D01*
X166535239Y-50340355D01*
X166535239Y-50538375D01*
X166531280Y-50584243D01*
X166519643Y-50626550D01*
X166500313Y-50666053D01*
G37*
G36*
X165676237Y-50750683D02*
G01*
X165645859Y-50773879D01*
X165612017Y-50787626D01*
X165573533Y-50792327D01*
X165323428Y-50792327D01*
X165277346Y-50788460D01*
X165234658Y-50777086D01*
X165194651Y-50758194D01*
X165158286Y-50732338D01*
X165127343Y-50701532D01*
X165101412Y-50665382D01*
X165082483Y-50625491D01*
X165071090Y-50582926D01*
X165067218Y-50536971D01*
X165067218Y-50085000D01*
X165211443Y-50085000D01*
X165211443Y-50533857D01*
X165215102Y-50564386D01*
X165225767Y-50591082D01*
X165243683Y-50614884D01*
X165267322Y-50633533D01*
X165293573Y-50644533D01*
X165323367Y-50648285D01*
X165575243Y-50648285D01*
X165575243Y-50085000D01*
X165719468Y-50085000D01*
X165719468Y-50648956D01*
X165714638Y-50686765D01*
X165700427Y-50720285D01*
X165676237Y-50750683D01*
G37*
G36*
X164760449Y-51054155D02*
G01*
X164760449Y-50522133D01*
X164711905Y-50522133D01*
X164455573Y-50792327D01*
X164268299Y-50792327D01*
X164591616Y-50450448D01*
X164239601Y-50085000D01*
X164441223Y-50085000D01*
X164724911Y-50378091D01*
X164760449Y-50378091D01*
X164760449Y-50085000D01*
X164904674Y-50085000D01*
X164904674Y-51054155D01*
X164760449Y-51054155D01*
G37*
G36*
X164137996Y-50666053D02*
G01*
X164112468Y-50701763D01*
X164081760Y-50732355D01*
X164045428Y-50758194D01*
X164005460Y-50777082D01*
X163962773Y-50788458D01*
X163916651Y-50792327D01*
X163520672Y-50792327D01*
X163520672Y-50085000D01*
X163664897Y-50085000D01*
X163664897Y-50648285D01*
X163916773Y-50648285D01*
X163946169Y-50644676D01*
X163972215Y-50634088D01*
X163995785Y-50616167D01*
X164014151Y-50592682D01*
X164024996Y-50566589D01*
X164028697Y-50536971D01*
X164028697Y-50341699D01*
X164024999Y-50312119D01*
X164014157Y-50286024D01*
X163995785Y-50262503D01*
X163972156Y-50243781D01*
X163946119Y-50232780D01*
X163916773Y-50229042D01*
X163747268Y-50229042D01*
X163747268Y-50085000D01*
X163916529Y-50085000D01*
X163962660Y-50088939D01*
X164005382Y-50100530D01*
X164045428Y-50119804D01*
X164081686Y-50145288D01*
X164112398Y-50175881D01*
X164137996Y-50212006D01*
X164157343Y-50251898D01*
X164168972Y-50294437D01*
X164172923Y-50340355D01*
X164172923Y-50538375D01*
X164168963Y-50584243D01*
X164157326Y-50626550D01*
X164137996Y-50666053D01*
G37*
G36*
X163212926Y-51054155D02*
G01*
X163212926Y-50085000D01*
X163357151Y-50085000D01*
X163357151Y-51054155D01*
X163212926Y-51054155D01*
G37*
G36*
X163014662Y-50750012D02*
G01*
X162984250Y-50773645D01*
X162950624Y-50787580D01*
X162912629Y-50792327D01*
X162661181Y-50792327D01*
X162615099Y-50788460D01*
X162572410Y-50777086D01*
X162532404Y-50758194D01*
X162495993Y-50732375D01*
X162465055Y-50701782D01*
X162439165Y-50666053D01*
X162420255Y-50626592D01*
X162408854Y-50584279D01*
X162404971Y-50538375D01*
X162404971Y-50340355D01*
X162408851Y-50294404D01*
X162420264Y-50251860D01*
X162439226Y-50212006D01*
X162465186Y-50175862D01*
X162496129Y-50145269D01*
X162532465Y-50119804D01*
X162572510Y-50100528D01*
X162615213Y-50088937D01*
X162661304Y-50085000D01*
X162830625Y-50085000D01*
X162830625Y-50229042D01*
X162661120Y-50229042D01*
X162631331Y-50232799D01*
X162605079Y-50243817D01*
X162581436Y-50262503D01*
X162563467Y-50285976D01*
X162552830Y-50312074D01*
X162549196Y-50341699D01*
X162549196Y-50536971D01*
X162552833Y-50566634D01*
X162563472Y-50592730D01*
X162581436Y-50616167D01*
X162604984Y-50634048D01*
X162631241Y-50644655D01*
X162661120Y-50648285D01*
X162912996Y-50648285D01*
X162912996Y-49821217D01*
X163057221Y-49821217D01*
X163057221Y-50648224D01*
X163052452Y-50686117D01*
X163038445Y-50719660D01*
X163014662Y-50750012D01*
G37*
G36*
X162097225Y-51054155D02*
G01*
X162097225Y-50792327D01*
X161874658Y-50792327D01*
X161826388Y-50788445D01*
X161781789Y-50777051D01*
X161740142Y-50758194D01*
X161702150Y-50732253D01*
X161670229Y-50701645D01*
X161643849Y-50666053D01*
X161624181Y-50626091D01*
X161612378Y-50583555D01*
X161608373Y-50537704D01*
X161608373Y-50085000D01*
X161752598Y-50085000D01*
X161752598Y-50535628D01*
X161756528Y-50564157D01*
X161768293Y-50590268D01*
X161788746Y-50614823D01*
X161814894Y-50633520D01*
X161843291Y-50644546D01*
X161874781Y-50648285D01*
X162097225Y-50648285D01*
X162097225Y-50085000D01*
X162241450Y-50085000D01*
X162241450Y-51054155D01*
X162097225Y-51054155D01*
G37*
G36*
X161417130Y-50666053D02*
G01*
X161391603Y-50701763D01*
X161360895Y-50732355D01*
X161324562Y-50758194D01*
X161284595Y-50777082D01*
X161241908Y-50788458D01*
X161195785Y-50792327D01*
X160799807Y-50792327D01*
X160799807Y-50085000D01*
X160944032Y-50085000D01*
X160944032Y-50648285D01*
X161195908Y-50648285D01*
X161225304Y-50644676D01*
X161251349Y-50634088D01*
X161274920Y-50616167D01*
X161293286Y-50592682D01*
X161304131Y-50566589D01*
X161307832Y-50536971D01*
X161307832Y-50341699D01*
X161304134Y-50312119D01*
X161293291Y-50286024D01*
X161274920Y-50262503D01*
X161251291Y-50243781D01*
X161225254Y-50232780D01*
X161195908Y-50229042D01*
X161026403Y-50229042D01*
X161026403Y-50085000D01*
X161195663Y-50085000D01*
X161241794Y-50088939D01*
X161284517Y-50100530D01*
X161324562Y-50119804D01*
X161360820Y-50145288D01*
X161391533Y-50175881D01*
X161417130Y-50212006D01*
X161436478Y-50251898D01*
X161448107Y-50294437D01*
X161452057Y-50340355D01*
X161452057Y-50538375D01*
X161448098Y-50584243D01*
X161436461Y-50626550D01*
X161417130Y-50666053D01*
G37*
G36*
X174129517Y-49554155D02*
G01*
X173617340Y-49554155D01*
X173573119Y-49550493D01*
X173532548Y-49539768D01*
X173494913Y-49522037D01*
X173460885Y-49498522D01*
X173431846Y-49470006D01*
X173407413Y-49436064D01*
X173389682Y-49398984D01*
X173378958Y-49358966D01*
X173375295Y-49315286D01*
X173375295Y-49251782D01*
X173381990Y-49190904D01*
X173400440Y-49144006D01*
X173429761Y-49107801D01*
X173386675Y-49072718D01*
X173358687Y-49033613D01*
X173342514Y-48986689D01*
X173336583Y-48925352D01*
X173336583Y-48820633D01*
X173480808Y-48820633D01*
X173480808Y-48927062D01*
X173487796Y-48962256D01*
X173508957Y-48992213D01*
X173539967Y-49012488D01*
X173577406Y-49019324D01*
X173903348Y-49019324D01*
X173903348Y-49163367D01*
X173617828Y-49163367D01*
X173580231Y-49170021D01*
X173548219Y-49189867D01*
X173526634Y-49218715D01*
X173519521Y-49253065D01*
X173519521Y-49314980D01*
X173526723Y-49351926D01*
X173548219Y-49382269D01*
X173580341Y-49403160D01*
X173617890Y-49410113D01*
X173985292Y-49410113D01*
X173985292Y-48729042D01*
X173576674Y-48729042D01*
X173539322Y-48735920D01*
X173508957Y-48756214D01*
X173487815Y-48785608D01*
X173480808Y-48820633D01*
X173336583Y-48820633D01*
X173336583Y-48818435D01*
X173340218Y-48776719D01*
X173350940Y-48737922D01*
X173368823Y-48701381D01*
X173407095Y-48653811D01*
X173456445Y-48616995D01*
X173493637Y-48599334D01*
X173533779Y-48588649D01*
X173577589Y-48585000D01*
X174129517Y-48585000D01*
X174129517Y-49554155D01*
G37*
G36*
X172882963Y-48802131D02*
G01*
X172694957Y-49292327D01*
X172535711Y-49292327D01*
X172911661Y-48319263D01*
X173069564Y-48319263D01*
X172959533Y-48608569D01*
X173219957Y-49292327D01*
X173066878Y-49292327D01*
X172882963Y-48802131D01*
G37*
G36*
X172401255Y-49554155D02*
G01*
X171883582Y-49554155D01*
X171833907Y-49549987D01*
X171787837Y-49537721D01*
X171744608Y-49517336D01*
X171705756Y-49489952D01*
X171672816Y-49457378D01*
X171645323Y-49419211D01*
X171624848Y-49376561D01*
X171612516Y-49330927D01*
X171608320Y-49281519D01*
X171608320Y-48857025D01*
X171752546Y-48857025D01*
X171752546Y-49280847D01*
X171756880Y-49315509D01*
X171769532Y-49345748D01*
X171790892Y-49372683D01*
X171818334Y-49393507D01*
X171849015Y-49405876D01*
X171884010Y-49410113D01*
X172257029Y-49410113D01*
X172257029Y-48729042D01*
X171884010Y-48729042D01*
X171849015Y-48733278D01*
X171818334Y-48745647D01*
X171790892Y-48766472D01*
X171769462Y-48793380D01*
X171756844Y-48823212D01*
X171752546Y-48857025D01*
X171608320Y-48857025D01*
X171608320Y-48854888D01*
X171612504Y-48806384D01*
X171624823Y-48761437D01*
X171645323Y-48719272D01*
X171672847Y-48681116D01*
X171705787Y-48648775D01*
X171744608Y-48621819D01*
X171787837Y-48601434D01*
X171833907Y-48589167D01*
X171883582Y-48585000D01*
X172401255Y-48585000D01*
X172401255Y-49554155D01*
G37*
G36*
X171406210Y-49419211D02*
G01*
X171377925Y-49457430D01*
X171344521Y-49490004D01*
X171305581Y-49517336D01*
X171262345Y-49537699D01*
X171216077Y-49549976D01*
X171165997Y-49554155D01*
X170656384Y-49554155D01*
X170656384Y-49410113D01*
X171166180Y-49410113D01*
X171201638Y-49405872D01*
X171232747Y-49393494D01*
X171260580Y-49372683D01*
X171282343Y-49345699D01*
X171295200Y-49315463D01*
X171299597Y-49280847D01*
X171299597Y-48854949D01*
X171295262Y-48822131D01*
X171282471Y-48792985D01*
X171260580Y-48766472D01*
X171232747Y-48745661D01*
X171201638Y-48733283D01*
X171166180Y-48729042D01*
X170656384Y-48729042D01*
X170656384Y-48585000D01*
X171165997Y-48585000D01*
X171216109Y-48589108D01*
X171262382Y-48601169D01*
X171305581Y-48621147D01*
X171344489Y-48648052D01*
X171377893Y-48680393D01*
X171406210Y-48718600D01*
X171427068Y-48760363D01*
X171439578Y-48804836D01*
X171443823Y-48852812D01*
X171443823Y-49281519D01*
X171439563Y-49330897D01*
X171427035Y-49376526D01*
X171406210Y-49419211D01*
G37*
G36*
X169835728Y-49554155D02*
G01*
X169835728Y-49410113D01*
X170344119Y-49410113D01*
X170344119Y-48585000D01*
X170488345Y-48585000D01*
X170488345Y-49554155D01*
X169835728Y-49554155D01*
G37*
G36*
X169835728Y-49162817D02*
G01*
X169835728Y-49018775D01*
X170261688Y-49018775D01*
X170261688Y-49162817D01*
X169835728Y-49162817D01*
G37*
G36*
X169515648Y-49554155D02*
G01*
X169515648Y-48857208D01*
X169511283Y-48823359D01*
X169498457Y-48793492D01*
X169476630Y-48766533D01*
X169448770Y-48745645D01*
X169417873Y-48733269D01*
X169382902Y-48729042D01*
X169143971Y-48729042D01*
X169109000Y-48733269D01*
X169078103Y-48745645D01*
X169050243Y-48766533D01*
X169028379Y-48793496D01*
X169015535Y-48823363D01*
X169011164Y-48857208D01*
X169011164Y-49554155D01*
X168866939Y-49554155D01*
X168866939Y-48855560D01*
X168871123Y-48807055D01*
X168883441Y-48762109D01*
X168903942Y-48719944D01*
X168931906Y-48681345D01*
X168965101Y-48648791D01*
X169003959Y-48621819D01*
X169046738Y-48601504D01*
X169092988Y-48589204D01*
X169143544Y-48585000D01*
X169382596Y-48585000D01*
X169432677Y-48589178D01*
X169478944Y-48601456D01*
X169522181Y-48621819D01*
X169561418Y-48648857D01*
X169594594Y-48681415D01*
X169622199Y-48719944D01*
X169643086Y-48762147D01*
X169655619Y-48807089D01*
X169659873Y-48855560D01*
X169659873Y-49554155D01*
X169515648Y-49554155D01*
G37*
G36*
X168532815Y-49554155D02*
G01*
X168532815Y-49162817D01*
X168461068Y-49162817D01*
X168075531Y-49554155D01*
X167876595Y-49554155D01*
X168346885Y-49076111D01*
X167847225Y-48585000D01*
X168048847Y-48585000D01*
X168490438Y-49018775D01*
X168532815Y-49018775D01*
X168532815Y-48585000D01*
X168677040Y-48585000D01*
X168677040Y-49554155D01*
X168532815Y-49554155D01*
G37*
G36*
X167703366Y-49437773D02*
G01*
X167665531Y-49485444D01*
X167615744Y-49522831D01*
X167578248Y-49540148D01*
X167538127Y-49550597D01*
X167494721Y-49554155D01*
X166991154Y-49554155D01*
X166991154Y-49410113D01*
X167494843Y-49410113D01*
X167531771Y-49403219D01*
X167563231Y-49382513D01*
X167584782Y-49352410D01*
X167591991Y-49315774D01*
X167591991Y-49249706D01*
X167584952Y-49216826D01*
X167563293Y-49188463D01*
X167531929Y-49169277D01*
X167494843Y-49162817D01*
X167184838Y-49162817D01*
X167140994Y-49159230D01*
X167100615Y-49148712D01*
X167063022Y-49131310D01*
X167013706Y-49093826D01*
X166975461Y-49045886D01*
X166957623Y-49008750D01*
X166946915Y-48969301D01*
X166943282Y-48926878D01*
X166943282Y-48820938D01*
X166946922Y-48778485D01*
X166957622Y-48739268D01*
X166975400Y-48702602D01*
X167013761Y-48654244D01*
X167062961Y-48617178D01*
X167100591Y-48599392D01*
X167140965Y-48588657D01*
X167184777Y-48585000D01*
X167735484Y-48585000D01*
X167735484Y-48729042D01*
X167184655Y-48729042D01*
X167147162Y-48735905D01*
X167115534Y-48756397D01*
X167094492Y-48786017D01*
X167087507Y-48821304D01*
X167087507Y-48925901D01*
X167094470Y-48961305D01*
X167115534Y-48991481D01*
X167147158Y-49011925D01*
X167184655Y-49018775D01*
X167494660Y-49018775D01*
X167538067Y-49022332D01*
X167578209Y-49032780D01*
X167615744Y-49050099D01*
X167650347Y-49073100D01*
X167679368Y-49100651D01*
X167703305Y-49133080D01*
X167721577Y-49169185D01*
X167732512Y-49207506D01*
X167736216Y-49248729D01*
X167736216Y-49320109D01*
X167732504Y-49362239D01*
X167721574Y-49401227D01*
X167703366Y-49437773D01*
G37*
G36*
X166624789Y-49554155D02*
G01*
X166624789Y-48857208D01*
X166620424Y-48823359D01*
X166607599Y-48793492D01*
X166585772Y-48766533D01*
X166557911Y-48745645D01*
X166527015Y-48733269D01*
X166492043Y-48729042D01*
X166253113Y-48729042D01*
X166218142Y-48733269D01*
X166187245Y-48745645D01*
X166159385Y-48766533D01*
X166137521Y-48793496D01*
X166124677Y-48823363D01*
X166120306Y-48857208D01*
X166120306Y-49554155D01*
X165976080Y-49554155D01*
X165976080Y-48855560D01*
X165980264Y-48807055D01*
X165992583Y-48762109D01*
X166013083Y-48719944D01*
X166041047Y-48681345D01*
X166074243Y-48648791D01*
X166113101Y-48621819D01*
X166155880Y-48601504D01*
X166202130Y-48589204D01*
X166252685Y-48585000D01*
X166491738Y-48585000D01*
X166541818Y-48589178D01*
X166588086Y-48601456D01*
X166631323Y-48621819D01*
X166670559Y-48648857D01*
X166703736Y-48681415D01*
X166731340Y-48719944D01*
X166752228Y-48762147D01*
X166764761Y-48807089D01*
X166769015Y-48855560D01*
X166769015Y-49554155D01*
X166624789Y-49554155D01*
G37*
G36*
X165271989Y-49554155D02*
G01*
X165228222Y-49550500D01*
X165188100Y-49539796D01*
X165150906Y-49522098D01*
X165102205Y-49484144D01*
X165064078Y-49435636D01*
X165046326Y-49398683D01*
X165035612Y-49358964D01*
X165031960Y-49315774D01*
X165031960Y-49219115D01*
X165035557Y-49175945D01*
X165046082Y-49136453D01*
X165063467Y-49099924D01*
X165101223Y-49052350D01*
X165150479Y-49015539D01*
X165188114Y-48998232D01*
X165228770Y-48987740D01*
X165273149Y-48984153D01*
X164982745Y-48585000D01*
X165159027Y-48585000D01*
X165448699Y-48984153D01*
X165560013Y-48984153D01*
X165560013Y-49128196D01*
X165272478Y-49128196D01*
X165235159Y-49135167D01*
X165204212Y-49155917D01*
X165183177Y-49185841D01*
X165176185Y-49221496D01*
X165176185Y-49315469D01*
X165183239Y-49352279D01*
X165204212Y-49382391D01*
X165235168Y-49403138D01*
X165272539Y-49410113D01*
X165641956Y-49410113D01*
X165641956Y-48585000D01*
X165786182Y-48585000D01*
X165786182Y-49554155D01*
X165271989Y-49554155D01*
G37*
G36*
X164714383Y-49554155D02*
G01*
X164400836Y-49171793D01*
X164087289Y-49554155D01*
X163955337Y-49554155D01*
X163955337Y-48585000D01*
X164099563Y-48585000D01*
X164099563Y-49309485D01*
X164340691Y-49017737D01*
X164460248Y-49017737D01*
X164702110Y-49309485D01*
X164702110Y-48585000D01*
X164846335Y-48585000D01*
X164846335Y-49554155D01*
X164714383Y-49554155D01*
G37*
G36*
X163526001Y-48589194D02*
G01*
X163574322Y-48601493D01*
X163619320Y-48621819D01*
X163660453Y-48649370D01*
X163695195Y-48682181D01*
X163724100Y-48720615D01*
X163746232Y-48763833D01*
X163759407Y-48809242D01*
X163763851Y-48857636D01*
X163763851Y-49281519D01*
X163759369Y-49330789D01*
X163746159Y-49376403D01*
X163724100Y-49419211D01*
X163695237Y-49457227D01*
X163660499Y-49489824D01*
X163619320Y-49517336D01*
X163574322Y-49537662D01*
X163526001Y-49549960D01*
X163473568Y-49554155D01*
X163245567Y-49554155D01*
X163193124Y-49549972D01*
X163144549Y-49537684D01*
X163099083Y-49517336D01*
X163057904Y-49489824D01*
X163023166Y-49457227D01*
X162994303Y-49419211D01*
X162972668Y-49376445D01*
X162959691Y-49330826D01*
X162955285Y-49281519D01*
X162955285Y-48857636D01*
X162955291Y-48857575D01*
X163099510Y-48857575D01*
X163099510Y-49281641D01*
X163104177Y-49315158D01*
X163118038Y-49345163D01*
X163142009Y-49372744D01*
X163172103Y-49393368D01*
X163206216Y-49405811D01*
X163245506Y-49410113D01*
X163473690Y-49410113D01*
X163512493Y-49405829D01*
X163546375Y-49393402D01*
X163576455Y-49372744D01*
X163600837Y-49345114D01*
X163614899Y-49315112D01*
X163619625Y-49281641D01*
X163619625Y-48857575D01*
X163614883Y-48824090D01*
X163600811Y-48794301D01*
X163576455Y-48767083D01*
X163546328Y-48746029D01*
X163512450Y-48733393D01*
X163473690Y-48729042D01*
X163245506Y-48729042D01*
X163206260Y-48733411D01*
X163172150Y-48746063D01*
X163142009Y-48767083D01*
X163118064Y-48794252D01*
X163104193Y-48824044D01*
X163099510Y-48857575D01*
X162955291Y-48857575D01*
X162959653Y-48809205D01*
X162972595Y-48763790D01*
X162994303Y-48720615D01*
X163023208Y-48682181D01*
X163057950Y-48649370D01*
X163099083Y-48621819D01*
X163144549Y-48601471D01*
X163193124Y-48589182D01*
X163245567Y-48585000D01*
X163473568Y-48585000D01*
X163526001Y-48589194D01*
G37*
G36*
X162633434Y-49554155D02*
G01*
X162319887Y-49171793D01*
X162006340Y-49554155D01*
X161874388Y-49554155D01*
X161874388Y-48585000D01*
X162018614Y-48585000D01*
X162018614Y-49309485D01*
X162259742Y-49017737D01*
X162379299Y-49017737D01*
X162621161Y-49309485D01*
X162621161Y-48585000D01*
X162765386Y-48585000D01*
X162765386Y-49554155D01*
X162633434Y-49554155D01*
G37*
X197854819Y-56890476D02*
X197854819Y-57461904D01*
X197854819Y-57176190D02*
X196854819Y-57176190D01*
X196854819Y-57176190D02*
X196997676Y-57271428D01*
X196997676Y-57271428D02*
X197092914Y-57366666D01*
X197092914Y-57366666D02*
X197140533Y-57461904D01*
X196854819Y-56271428D02*
X196854819Y-56176190D01*
X196854819Y-56176190D02*
X196902438Y-56080952D01*
X196902438Y-56080952D02*
X196950057Y-56033333D01*
X196950057Y-56033333D02*
X197045295Y-55985714D01*
X197045295Y-55985714D02*
X197235771Y-55938095D01*
X197235771Y-55938095D02*
X197473866Y-55938095D01*
X197473866Y-55938095D02*
X197664342Y-55985714D01*
X197664342Y-55985714D02*
X197759580Y-56033333D01*
X197759580Y-56033333D02*
X197807200Y-56080952D01*
X197807200Y-56080952D02*
X197854819Y-56176190D01*
X197854819Y-56176190D02*
X197854819Y-56271428D01*
X197854819Y-56271428D02*
X197807200Y-56366666D01*
X197807200Y-56366666D02*
X197759580Y-56414285D01*
X197759580Y-56414285D02*
X197664342Y-56461904D01*
X197664342Y-56461904D02*
X197473866Y-56509523D01*
X197473866Y-56509523D02*
X197235771Y-56509523D01*
X197235771Y-56509523D02*
X197045295Y-56461904D01*
X197045295Y-56461904D02*
X196950057Y-56414285D01*
X196950057Y-56414285D02*
X196902438Y-56366666D01*
X196902438Y-56366666D02*
X196854819Y-56271428D01*
X197854819Y-55509523D02*
X196854819Y-55509523D01*
X197854819Y-54938095D02*
X197283390Y-55366666D01*
X196854819Y-54938095D02*
X197426247Y-55509523D01*
X180854819Y-52490476D02*
X180854819Y-53061904D01*
X180854819Y-52776190D02*
X179854819Y-52776190D01*
X179854819Y-52776190D02*
X179997676Y-52871428D01*
X179997676Y-52871428D02*
X180092914Y-52966666D01*
X180092914Y-52966666D02*
X180140533Y-53061904D01*
X179854819Y-51871428D02*
X179854819Y-51776190D01*
X179854819Y-51776190D02*
X179902438Y-51680952D01*
X179902438Y-51680952D02*
X179950057Y-51633333D01*
X179950057Y-51633333D02*
X180045295Y-51585714D01*
X180045295Y-51585714D02*
X180235771Y-51538095D01*
X180235771Y-51538095D02*
X180473866Y-51538095D01*
X180473866Y-51538095D02*
X180664342Y-51585714D01*
X180664342Y-51585714D02*
X180759580Y-51633333D01*
X180759580Y-51633333D02*
X180807200Y-51680952D01*
X180807200Y-51680952D02*
X180854819Y-51776190D01*
X180854819Y-51776190D02*
X180854819Y-51871428D01*
X180854819Y-51871428D02*
X180807200Y-51966666D01*
X180807200Y-51966666D02*
X180759580Y-52014285D01*
X180759580Y-52014285D02*
X180664342Y-52061904D01*
X180664342Y-52061904D02*
X180473866Y-52109523D01*
X180473866Y-52109523D02*
X180235771Y-52109523D01*
X180235771Y-52109523D02*
X180045295Y-52061904D01*
X180045295Y-52061904D02*
X179950057Y-52014285D01*
X179950057Y-52014285D02*
X179902438Y-51966666D01*
X179902438Y-51966666D02*
X179854819Y-51871428D01*
X180854819Y-51109523D02*
X179854819Y-51109523D01*
X180854819Y-50538095D02*
X180283390Y-50966666D01*
X179854819Y-50538095D02*
X180426247Y-51109523D01*
X175454819Y-52623332D02*
X175454819Y-52004285D01*
X175454819Y-52004285D02*
X175835771Y-52337618D01*
X175835771Y-52337618D02*
X175835771Y-52194761D01*
X175835771Y-52194761D02*
X175883390Y-52099523D01*
X175883390Y-52099523D02*
X175931009Y-52051904D01*
X175931009Y-52051904D02*
X176026247Y-52004285D01*
X176026247Y-52004285D02*
X176264342Y-52004285D01*
X176264342Y-52004285D02*
X176359580Y-52051904D01*
X176359580Y-52051904D02*
X176407200Y-52099523D01*
X176407200Y-52099523D02*
X176454819Y-52194761D01*
X176454819Y-52194761D02*
X176454819Y-52480475D01*
X176454819Y-52480475D02*
X176407200Y-52575713D01*
X176407200Y-52575713D02*
X176359580Y-52623332D01*
X176454819Y-51575713D02*
X175454819Y-51575713D01*
X176454819Y-51004285D02*
X175883390Y-51432856D01*
X175454819Y-51004285D02*
X176026247Y-51575713D01*
X178654819Y-52490476D02*
X178654819Y-53061904D01*
X178654819Y-52776190D02*
X177654819Y-52776190D01*
X177654819Y-52776190D02*
X177797676Y-52871428D01*
X177797676Y-52871428D02*
X177892914Y-52966666D01*
X177892914Y-52966666D02*
X177940533Y-53061904D01*
X177654819Y-51871428D02*
X177654819Y-51776190D01*
X177654819Y-51776190D02*
X177702438Y-51680952D01*
X177702438Y-51680952D02*
X177750057Y-51633333D01*
X177750057Y-51633333D02*
X177845295Y-51585714D01*
X177845295Y-51585714D02*
X178035771Y-51538095D01*
X178035771Y-51538095D02*
X178273866Y-51538095D01*
X178273866Y-51538095D02*
X178464342Y-51585714D01*
X178464342Y-51585714D02*
X178559580Y-51633333D01*
X178559580Y-51633333D02*
X178607200Y-51680952D01*
X178607200Y-51680952D02*
X178654819Y-51776190D01*
X178654819Y-51776190D02*
X178654819Y-51871428D01*
X178654819Y-51871428D02*
X178607200Y-51966666D01*
X178607200Y-51966666D02*
X178559580Y-52014285D01*
X178559580Y-52014285D02*
X178464342Y-52061904D01*
X178464342Y-52061904D02*
X178273866Y-52109523D01*
X178273866Y-52109523D02*
X178035771Y-52109523D01*
X178035771Y-52109523D02*
X177845295Y-52061904D01*
X177845295Y-52061904D02*
X177750057Y-52014285D01*
X177750057Y-52014285D02*
X177702438Y-51966666D01*
X177702438Y-51966666D02*
X177654819Y-51871428D01*
X178654819Y-51109523D02*
X177654819Y-51109523D01*
X178654819Y-50538095D02*
X178083390Y-50966666D01*
X177654819Y-50538095D02*
X178226247Y-51109523D01*
G36*
X168169836Y-62062226D02*
G01*
X168207671Y-62014555D01*
X168257458Y-61977168D01*
X168294954Y-61959851D01*
X168335075Y-61949402D01*
X168378480Y-61945844D01*
X168882048Y-61945844D01*
X168882048Y-62089886D01*
X168378358Y-62089886D01*
X168341430Y-62096780D01*
X168309970Y-62117486D01*
X168288420Y-62147589D01*
X168281210Y-62184225D01*
X168281210Y-62250293D01*
X168288250Y-62283173D01*
X168309909Y-62311536D01*
X168341272Y-62330722D01*
X168378358Y-62337182D01*
X168688363Y-62337182D01*
X168732208Y-62340769D01*
X168772587Y-62351287D01*
X168810179Y-62368689D01*
X168859495Y-62406173D01*
X168897741Y-62454113D01*
X168915579Y-62491249D01*
X168926287Y-62530698D01*
X168929920Y-62573121D01*
X168929920Y-62679061D01*
X168926280Y-62721514D01*
X168915580Y-62760731D01*
X168897802Y-62797397D01*
X168859441Y-62845755D01*
X168810241Y-62882821D01*
X168772610Y-62900607D01*
X168732236Y-62911342D01*
X168688424Y-62915000D01*
X168137718Y-62915000D01*
X168137718Y-62770957D01*
X168688547Y-62770957D01*
X168726039Y-62764094D01*
X168757667Y-62743602D01*
X168778710Y-62713982D01*
X168785694Y-62678695D01*
X168785694Y-62574098D01*
X168778731Y-62538694D01*
X168757667Y-62508518D01*
X168726044Y-62488074D01*
X168688547Y-62481224D01*
X168378541Y-62481224D01*
X168335135Y-62477667D01*
X168294993Y-62467219D01*
X168257458Y-62449900D01*
X168222855Y-62426899D01*
X168193834Y-62399348D01*
X168169897Y-62366919D01*
X168151624Y-62330814D01*
X168140690Y-62292493D01*
X168136985Y-62251270D01*
X168136985Y-62179890D01*
X168140697Y-62137760D01*
X168151628Y-62098772D01*
X168169836Y-62062226D01*
G37*
G36*
X169671534Y-61950012D02*
G01*
X169717605Y-61962278D01*
X169760834Y-61982663D01*
X169799685Y-62010047D01*
X169832626Y-62042621D01*
X169860118Y-62080788D01*
X169880593Y-62123438D01*
X169892925Y-62169072D01*
X169897121Y-62218480D01*
X169897121Y-62645111D01*
X169892937Y-62693615D01*
X169880619Y-62738562D01*
X169860118Y-62780727D01*
X169832594Y-62818883D01*
X169799654Y-62851224D01*
X169760834Y-62878180D01*
X169717605Y-62898565D01*
X169671534Y-62910832D01*
X169621859Y-62915000D01*
X169104187Y-62915000D01*
X169104187Y-62770957D01*
X169248412Y-62770957D01*
X169621432Y-62770957D01*
X169656427Y-62766721D01*
X169687107Y-62754352D01*
X169714550Y-62733527D01*
X169735979Y-62706619D01*
X169748597Y-62676787D01*
X169752896Y-62642974D01*
X169752896Y-62219152D01*
X169748562Y-62184490D01*
X169735910Y-62154251D01*
X169714550Y-62127316D01*
X169687107Y-62106492D01*
X169656427Y-62094123D01*
X169621432Y-62089886D01*
X169248412Y-62089886D01*
X169248412Y-62770957D01*
X169104187Y-62770957D01*
X169104187Y-61945844D01*
X169621859Y-61945844D01*
X169671534Y-61950012D01*
G37*
G36*
X171135310Y-61945844D02*
G01*
X171135310Y-62089886D01*
X170626919Y-62089886D01*
X170626919Y-62915000D01*
X170482693Y-62915000D01*
X170482693Y-61945844D01*
X171135310Y-61945844D01*
G37*
G36*
X171135310Y-62337182D02*
G01*
X171135310Y-62481224D01*
X170709351Y-62481224D01*
X170709351Y-62337182D01*
X171135310Y-62337182D01*
G37*
G36*
X171443667Y-61945844D02*
G01*
X171443667Y-62915000D01*
X171299441Y-62915000D01*
X171299441Y-61945844D01*
X171443667Y-61945844D01*
G37*
G36*
X171634298Y-62333946D02*
G01*
X171659826Y-62298236D01*
X171690534Y-62267644D01*
X171726866Y-62241805D01*
X171766834Y-62222917D01*
X171809521Y-62211541D01*
X171855644Y-62207672D01*
X172251622Y-62207672D01*
X172251622Y-62915000D01*
X172107397Y-62915000D01*
X172107397Y-62351714D01*
X171855521Y-62351714D01*
X171826125Y-62355323D01*
X171800080Y-62365911D01*
X171776509Y-62383832D01*
X171758143Y-62407317D01*
X171747298Y-62433410D01*
X171743597Y-62463028D01*
X171743597Y-62658300D01*
X171747295Y-62687880D01*
X171758137Y-62713975D01*
X171776509Y-62737496D01*
X171800138Y-62756218D01*
X171826175Y-62767219D01*
X171855521Y-62770957D01*
X172025026Y-62770957D01*
X172025026Y-62915000D01*
X171855766Y-62915000D01*
X171809635Y-62911060D01*
X171766912Y-62899469D01*
X171726866Y-62880195D01*
X171690609Y-62854711D01*
X171659896Y-62824118D01*
X171634298Y-62787993D01*
X171614951Y-62748101D01*
X171603322Y-62705562D01*
X171599372Y-62659644D01*
X171599372Y-62461624D01*
X171603331Y-62415756D01*
X171614968Y-62373449D01*
X171634298Y-62333946D01*
G37*
G36*
X172435293Y-62305797D02*
G01*
X172467757Y-62265395D01*
X172509054Y-62234234D01*
X172556987Y-62214405D01*
X172610720Y-62207672D01*
X173025567Y-62207672D01*
X173025567Y-62351714D01*
X172610903Y-62351714D01*
X172588056Y-62355653D01*
X172569260Y-62367224D01*
X172555890Y-62385158D01*
X172551552Y-62405692D01*
X172551552Y-62422545D01*
X172555937Y-62443651D01*
X172569321Y-62461685D01*
X172588126Y-62473772D01*
X172610965Y-62477866D01*
X172868946Y-62477866D01*
X172923298Y-62484651D01*
X172971284Y-62504549D01*
X173012461Y-62536461D01*
X173044373Y-62577212D01*
X173064759Y-62624664D01*
X173071668Y-62677901D01*
X173071668Y-62714965D01*
X173064782Y-62767567D01*
X173044373Y-62814921D01*
X173012377Y-62856122D01*
X172971284Y-62887583D01*
X172923202Y-62908042D01*
X172868885Y-62915000D01*
X172439506Y-62915000D01*
X172439506Y-62770957D01*
X172868152Y-62770957D01*
X172891023Y-62766807D01*
X172910406Y-62754410D01*
X172923199Y-62736222D01*
X172927442Y-62714659D01*
X172927442Y-62678878D01*
X172923168Y-62656737D01*
X172910406Y-62638456D01*
X172891023Y-62626058D01*
X172868152Y-62621908D01*
X172610476Y-62621908D01*
X172556845Y-62615016D01*
X172508932Y-62594675D01*
X172467747Y-62563396D01*
X172435293Y-62522440D01*
X172414370Y-62475286D01*
X172407327Y-62422972D01*
X172407327Y-62405936D01*
X172414391Y-62353042D01*
X172435293Y-62305797D01*
G37*
G36*
X173374162Y-61945844D02*
G01*
X173374162Y-62207672D01*
X173596729Y-62207672D01*
X173644999Y-62211554D01*
X173689598Y-62222948D01*
X173731245Y-62241805D01*
X173769237Y-62267746D01*
X173801158Y-62298354D01*
X173827538Y-62333946D01*
X173847206Y-62373908D01*
X173859009Y-62416444D01*
X173863014Y-62462295D01*
X173863014Y-62915000D01*
X173718789Y-62915000D01*
X173718789Y-62464371D01*
X173714859Y-62435842D01*
X173703094Y-62409731D01*
X173682641Y-62385176D01*
X173656493Y-62366479D01*
X173628096Y-62355453D01*
X173596607Y-62351714D01*
X173374162Y-62351714D01*
X173374162Y-62915000D01*
X173229937Y-62915000D01*
X173229937Y-61945844D01*
X173374162Y-61945844D01*
G37*
%TO.C,10K*%
D11*
X196480000Y-54280000D02*
X196480000Y-58120000D01*
X196480000Y-58120000D02*
X198320000Y-58120000D01*
X197400000Y-53330000D02*
X197400000Y-54280000D01*
X197400000Y-59070000D02*
X197400000Y-58120000D01*
X198320000Y-54280000D02*
X196480000Y-54280000D01*
X198320000Y-58120000D02*
X198320000Y-54280000D01*
D12*
%TO.C,REF\u002A\u002A*%
X166429193Y-52363218D02*
X166405839Y-52353012D01*
X166350098Y-52308866D01*
X166302431Y-52245033D01*
X166272952Y-52176913D01*
X166268154Y-52143330D01*
X166284240Y-52096444D01*
X166319525Y-52071635D01*
X166357356Y-52056613D01*
X166374679Y-52053845D01*
X166383114Y-52073934D01*
X166399770Y-52117649D01*
X166407077Y-52137402D01*
X166448052Y-52205729D01*
X166507378Y-52239809D01*
X166583448Y-52238761D01*
X166589082Y-52237419D01*
X166629695Y-52218164D01*
X166659552Y-52180625D01*
X166679945Y-52120191D01*
X166692164Y-52032249D01*
X166697500Y-51912187D01*
X166698000Y-51848302D01*
X166698248Y-51747597D01*
X166699874Y-51678946D01*
X166704199Y-51635327D01*
X166712546Y-51609718D01*
X166726235Y-51595097D01*
X166746589Y-51584442D01*
X166747766Y-51583905D01*
X166786962Y-51567333D01*
X166806381Y-51561231D01*
X166809365Y-51579681D01*
X166811919Y-51630677D01*
X166813860Y-51707692D01*
X166815003Y-51804195D01*
X166815231Y-51874816D01*
X166814068Y-52011475D01*
X166809521Y-52115149D01*
X166800001Y-52191892D01*
X166783919Y-52247754D01*
X166759687Y-52288788D01*
X166725714Y-52321046D01*
X166692167Y-52343560D01*
X166611501Y-52373524D01*
X166517619Y-52380282D01*
X166429193Y-52363218D01*
G36*
X166809365Y-51579681D02*
G01*
X166811919Y-51630677D01*
X166813860Y-51707692D01*
X166815003Y-51804195D01*
X166815231Y-51874816D01*
X166814068Y-52011475D01*
X166809521Y-52115149D01*
X166800001Y-52191892D01*
X166783919Y-52247754D01*
X166759687Y-52288788D01*
X166725714Y-52321046D01*
X166692167Y-52343560D01*
X166611501Y-52373524D01*
X166517619Y-52380282D01*
X166429193Y-52363218D01*
X166405839Y-52353012D01*
X166350098Y-52308866D01*
X166302431Y-52245033D01*
X166272952Y-52176913D01*
X166268154Y-52143330D01*
X166284240Y-52096444D01*
X166319525Y-52071635D01*
X166357356Y-52056613D01*
X166374679Y-52053845D01*
X166383114Y-52073934D01*
X166399770Y-52117649D01*
X166407077Y-52137402D01*
X166448052Y-52205729D01*
X166507378Y-52239809D01*
X166583448Y-52238761D01*
X166589082Y-52237419D01*
X166629695Y-52218164D01*
X166659552Y-52180625D01*
X166679945Y-52120191D01*
X166692164Y-52032249D01*
X166697500Y-51912187D01*
X166698000Y-51848302D01*
X166698248Y-51747597D01*
X166699874Y-51678946D01*
X166704199Y-51635327D01*
X166712546Y-51609718D01*
X166726235Y-51595097D01*
X166746589Y-51584442D01*
X166747766Y-51583905D01*
X166786962Y-51567333D01*
X166806381Y-51561231D01*
X166809365Y-51579681D01*
G37*
X171728336Y-52404911D02*
X171665633Y-52368642D01*
X171622039Y-52332642D01*
X171590155Y-52294925D01*
X171568190Y-52248801D01*
X171554351Y-52187579D01*
X171546847Y-52104569D01*
X171543883Y-51993081D01*
X171543539Y-51912938D01*
X171543539Y-51617935D01*
X171709615Y-51543485D01*
X171719385Y-51866598D01*
X171723421Y-51987271D01*
X171727656Y-52074859D01*
X171732903Y-52135350D01*
X171739975Y-52174732D01*
X171749689Y-52198993D01*
X171762856Y-52214120D01*
X171767081Y-52217394D01*
X171831091Y-52242966D01*
X171895792Y-52232847D01*
X171934308Y-52206000D01*
X171949975Y-52186976D01*
X171960820Y-52162012D01*
X171967712Y-52124166D01*
X171971521Y-52066498D01*
X171973117Y-51982065D01*
X171973385Y-51894072D01*
X171973437Y-51783677D01*
X171975328Y-51705537D01*
X171981655Y-51652835D01*
X171995017Y-51618758D01*
X172018015Y-51596489D01*
X172053246Y-51579213D01*
X172100303Y-51561262D01*
X172151697Y-51541722D01*
X172145579Y-51888515D01*
X172143116Y-52013532D01*
X172140233Y-52105918D01*
X172136102Y-52172119D01*
X172129893Y-52218580D01*
X172120774Y-52251744D01*
X172107917Y-52278056D01*
X172092416Y-52301271D01*
X172017629Y-52375431D01*
X171926372Y-52418316D01*
X171827117Y-52428588D01*
X171728336Y-52404911D01*
G36*
X172145579Y-51888515D02*
G01*
X172143116Y-52013532D01*
X172140233Y-52105918D01*
X172136102Y-52172119D01*
X172129893Y-52218580D01*
X172120774Y-52251744D01*
X172107917Y-52278056D01*
X172092416Y-52301271D01*
X172017629Y-52375431D01*
X171926372Y-52418316D01*
X171827117Y-52428588D01*
X171728336Y-52404911D01*
X171665633Y-52368642D01*
X171622039Y-52332642D01*
X171590155Y-52294925D01*
X171568190Y-52248801D01*
X171554351Y-52187579D01*
X171546847Y-52104569D01*
X171543883Y-51993081D01*
X171543539Y-51912938D01*
X171543539Y-51617935D01*
X171709615Y-51543485D01*
X171719385Y-51866598D01*
X171723421Y-51987271D01*
X171727656Y-52074859D01*
X171732903Y-52135350D01*
X171739975Y-52174732D01*
X171749689Y-52198993D01*
X171762856Y-52214120D01*
X171767081Y-52217394D01*
X171831091Y-52242966D01*
X171895792Y-52232847D01*
X171934308Y-52206000D01*
X171949975Y-52186976D01*
X171960820Y-52162012D01*
X171967712Y-52124166D01*
X171971521Y-52066498D01*
X171973117Y-51982065D01*
X171973385Y-51894072D01*
X171973437Y-51783677D01*
X171975328Y-51705537D01*
X171981655Y-51652835D01*
X171995017Y-51618758D01*
X172018015Y-51596489D01*
X172053246Y-51579213D01*
X172100303Y-51561262D01*
X172151697Y-51541722D01*
X172145579Y-51888515D01*
G37*
X169286638Y-52375330D02*
X169197883Y-52342579D01*
X169125978Y-52284650D01*
X169097856Y-52243872D01*
X169067198Y-52169046D01*
X169067835Y-52114942D01*
X169100013Y-52078554D01*
X169111919Y-52072367D01*
X169163325Y-52053075D01*
X169189578Y-52058018D01*
X169198470Y-52090413D01*
X169198923Y-52108308D01*
X169215203Y-52174141D01*
X169257635Y-52220193D01*
X169316612Y-52242436D01*
X169382525Y-52236839D01*
X169436105Y-52207771D01*
X169454202Y-52191190D01*
X169467029Y-52171075D01*
X169475694Y-52140668D01*
X169481304Y-52093212D01*
X169484965Y-52021950D01*
X169487785Y-51920125D01*
X169488516Y-51887885D01*
X169491180Y-51777590D01*
X169494208Y-51699964D01*
X169498750Y-51648604D01*
X169505954Y-51617110D01*
X169516967Y-51599080D01*
X169532940Y-51588112D01*
X169543166Y-51583267D01*
X169586594Y-51566699D01*
X169612158Y-51561231D01*
X169620605Y-51579493D01*
X169625761Y-51634704D01*
X169627654Y-51727501D01*
X169626311Y-51858522D01*
X169625893Y-51878731D01*
X169622942Y-51998267D01*
X169619452Y-52085551D01*
X169614486Y-52147409D01*
X169607107Y-52190664D01*
X169596376Y-52222140D01*
X169581355Y-52248661D01*
X169573498Y-52260025D01*
X169528447Y-52310308D01*
X169478060Y-52349419D01*
X169471892Y-52352833D01*
X169381542Y-52379788D01*
X169286638Y-52375330D01*
G36*
X169620605Y-51579493D02*
G01*
X169625761Y-51634704D01*
X169627654Y-51727501D01*
X169626311Y-51858522D01*
X169625893Y-51878731D01*
X169622942Y-51998267D01*
X169619452Y-52085551D01*
X169614486Y-52147409D01*
X169607107Y-52190664D01*
X169596376Y-52222140D01*
X169581355Y-52248661D01*
X169573498Y-52260025D01*
X169528447Y-52310308D01*
X169478060Y-52349419D01*
X169471892Y-52352833D01*
X169381542Y-52379788D01*
X169286638Y-52375330D01*
X169197883Y-52342579D01*
X169125978Y-52284650D01*
X169097856Y-52243872D01*
X169067198Y-52169046D01*
X169067835Y-52114942D01*
X169100013Y-52078554D01*
X169111919Y-52072367D01*
X169163325Y-52053075D01*
X169189578Y-52058018D01*
X169198470Y-52090413D01*
X169198923Y-52108308D01*
X169215203Y-52174141D01*
X169257635Y-52220193D01*
X169316612Y-52242436D01*
X169382525Y-52236839D01*
X169436105Y-52207771D01*
X169454202Y-52191190D01*
X169467029Y-52171075D01*
X169475694Y-52140668D01*
X169481304Y-52093212D01*
X169484965Y-52021950D01*
X169487785Y-51920125D01*
X169488516Y-51887885D01*
X169491180Y-51777590D01*
X169494208Y-51699964D01*
X169498750Y-51648604D01*
X169505954Y-51617110D01*
X169516967Y-51599080D01*
X169532940Y-51588112D01*
X169543166Y-51583267D01*
X169586594Y-51566699D01*
X169612158Y-51561231D01*
X169620605Y-51579493D01*
G37*
X170840154Y-52507880D02*
X170834428Y-52428020D01*
X170827851Y-52380961D01*
X170818738Y-52360434D01*
X170805402Y-52360171D01*
X170801077Y-52362622D01*
X170743556Y-52380364D01*
X170668732Y-52379328D01*
X170592661Y-52361090D01*
X170545082Y-52337495D01*
X170496298Y-52299802D01*
X170460636Y-52257145D01*
X170436155Y-52202943D01*
X170420913Y-52130616D01*
X170412970Y-52033581D01*
X170410384Y-51905258D01*
X170410338Y-51880642D01*
X170410308Y-51604130D01*
X170471839Y-51582680D01*
X170515541Y-51568088D01*
X170539518Y-51561294D01*
X170540223Y-51561231D01*
X170542585Y-51579655D01*
X170544594Y-51630474D01*
X170546099Y-51707007D01*
X170546947Y-51802570D01*
X170547077Y-51860671D01*
X170547349Y-51975229D01*
X170548748Y-52057333D01*
X170552151Y-52113607D01*
X170558433Y-52150674D01*
X170568471Y-52175156D01*
X170583139Y-52193675D01*
X170592298Y-52202594D01*
X170655211Y-52238534D01*
X170723864Y-52241225D01*
X170786152Y-52210830D01*
X170797671Y-52199856D01*
X170814567Y-52179221D01*
X170826286Y-52154744D01*
X170833767Y-52119353D01*
X170837946Y-52065974D01*
X170839763Y-51987534D01*
X170840154Y-51879383D01*
X170840154Y-51604130D01*
X170901685Y-51582680D01*
X170945387Y-51568088D01*
X170969364Y-51561294D01*
X170970070Y-51561231D01*
X170971874Y-51579931D01*
X170973500Y-51632678D01*
X170974883Y-51714443D01*
X170975958Y-51820195D01*
X170976660Y-51944906D01*
X170976923Y-52083545D01*
X170976923Y-52618194D01*
X170849923Y-52671764D01*
X170840154Y-52507880D01*
G36*
X170971874Y-51579931D02*
G01*
X170973500Y-51632678D01*
X170974883Y-51714443D01*
X170975958Y-51820195D01*
X170976660Y-51944906D01*
X170976923Y-52083545D01*
X170976923Y-52618194D01*
X170849923Y-52671764D01*
X170840154Y-52507880D01*
X170834428Y-52428020D01*
X170827851Y-52380961D01*
X170818738Y-52360434D01*
X170805402Y-52360171D01*
X170801077Y-52362622D01*
X170743556Y-52380364D01*
X170668732Y-52379328D01*
X170592661Y-52361090D01*
X170545082Y-52337495D01*
X170496298Y-52299802D01*
X170460636Y-52257145D01*
X170436155Y-52202943D01*
X170420913Y-52130616D01*
X170412970Y-52033581D01*
X170410384Y-51905258D01*
X170410338Y-51880642D01*
X170410308Y-51604130D01*
X170471839Y-51582680D01*
X170515541Y-51568088D01*
X170539518Y-51561294D01*
X170540223Y-51561231D01*
X170542585Y-51579655D01*
X170544594Y-51630474D01*
X170546099Y-51707007D01*
X170546947Y-51802570D01*
X170547077Y-51860671D01*
X170547349Y-51975229D01*
X170548748Y-52057333D01*
X170552151Y-52113607D01*
X170558433Y-52150674D01*
X170568471Y-52175156D01*
X170583139Y-52193675D01*
X170592298Y-52202594D01*
X170655211Y-52238534D01*
X170723864Y-52241225D01*
X170786152Y-52210830D01*
X170797671Y-52199856D01*
X170814567Y-52179221D01*
X170826286Y-52154744D01*
X170833767Y-52119353D01*
X170837946Y-52065974D01*
X170839763Y-51987534D01*
X170840154Y-51879383D01*
X170840154Y-51604130D01*
X170901685Y-51582680D01*
X170945387Y-51568088D01*
X170969364Y-51561294D01*
X170970070Y-51561231D01*
X170971874Y-51579931D01*
G37*
X167604071Y-52363338D02*
X167601089Y-52311932D01*
X167598753Y-52233808D01*
X167597251Y-52135143D01*
X167596769Y-52031657D01*
X167596769Y-51681467D01*
X167658599Y-51619637D01*
X167701207Y-51581538D01*
X167738610Y-51566105D01*
X167789730Y-51567082D01*
X167810022Y-51569567D01*
X167873446Y-51576800D01*
X167925905Y-51580945D01*
X167938692Y-51581328D01*
X167981801Y-51578824D01*
X168043456Y-51572538D01*
X168067362Y-51569567D01*
X168126078Y-51564972D01*
X168165536Y-51574954D01*
X168204662Y-51605772D01*
X168218785Y-51619637D01*
X168280615Y-51681467D01*
X168280615Y-52336497D01*
X168230850Y-52359171D01*
X168187998Y-52375966D01*
X168162927Y-52381846D01*
X168156499Y-52363264D01*
X168150491Y-52311345D01*
X168145303Y-52231828D01*
X168141336Y-52130454D01*
X168139423Y-52044808D01*
X168134077Y-51707769D01*
X168087440Y-51701175D01*
X168045024Y-51705786D01*
X168024240Y-51720713D01*
X168018430Y-51748623D01*
X168013470Y-51808075D01*
X168009754Y-51891534D01*
X168007676Y-51991468D01*
X168007376Y-52042896D01*
X168007077Y-52338946D01*
X167945546Y-52360396D01*
X167901996Y-52374980D01*
X167878306Y-52381781D01*
X167877623Y-52381846D01*
X167875246Y-52363358D01*
X167872634Y-52312094D01*
X167870005Y-52234351D01*
X167867579Y-52136426D01*
X167865885Y-52044808D01*
X167860539Y-51707769D01*
X167743308Y-51707769D01*
X167737928Y-52015254D01*
X167732549Y-52322739D01*
X167675399Y-52352293D01*
X167633203Y-52372587D01*
X167608230Y-52381796D01*
X167607509Y-52381846D01*
X167604071Y-52363338D01*
G36*
X168165536Y-51574954D02*
G01*
X168204662Y-51605772D01*
X168218785Y-51619637D01*
X168280615Y-51681467D01*
X168280615Y-52336497D01*
X168230850Y-52359171D01*
X168187998Y-52375966D01*
X168162927Y-52381846D01*
X168156499Y-52363264D01*
X168150491Y-52311345D01*
X168145303Y-52231828D01*
X168141336Y-52130454D01*
X168139423Y-52044808D01*
X168134077Y-51707769D01*
X168087440Y-51701175D01*
X168045024Y-51705786D01*
X168024240Y-51720713D01*
X168018430Y-51748623D01*
X168013470Y-51808075D01*
X168009754Y-51891534D01*
X168007676Y-51991468D01*
X168007376Y-52042896D01*
X168007077Y-52338946D01*
X167945546Y-52360396D01*
X167901996Y-52374980D01*
X167878306Y-52381781D01*
X167877623Y-52381846D01*
X167875246Y-52363358D01*
X167872634Y-52312094D01*
X167870005Y-52234351D01*
X167867579Y-52136426D01*
X167865885Y-52044808D01*
X167860539Y-51707769D01*
X167743308Y-51707769D01*
X167737928Y-52015254D01*
X167732549Y-52322739D01*
X167675399Y-52352293D01*
X167633203Y-52372587D01*
X167608230Y-52381796D01*
X167607509Y-52381846D01*
X167604071Y-52363338D01*
X167601089Y-52311932D01*
X167598753Y-52233808D01*
X167597251Y-52135143D01*
X167596769Y-52031657D01*
X167596769Y-51681467D01*
X167658599Y-51619637D01*
X167701207Y-51581538D01*
X167738610Y-51566105D01*
X167789730Y-51567082D01*
X167810022Y-51569567D01*
X167873446Y-51576800D01*
X167925905Y-51580945D01*
X167938692Y-51581328D01*
X167981801Y-51578824D01*
X168043456Y-51572538D01*
X168067362Y-51569567D01*
X168126078Y-51564972D01*
X168165536Y-51574954D01*
G37*
X173983114Y-52412744D02*
X173891536Y-52364591D01*
X173823951Y-52287095D01*
X173799943Y-52237273D01*
X173781262Y-52162467D01*
X173771699Y-52067948D01*
X173770792Y-51964790D01*
X173778079Y-51864065D01*
X173793097Y-51776847D01*
X173815385Y-51714209D01*
X173822235Y-51703421D01*
X173903368Y-51622895D01*
X173999734Y-51574664D01*
X174104299Y-51560550D01*
X174210032Y-51582371D01*
X174239457Y-51595453D01*
X174296759Y-51635769D01*
X174347050Y-51689225D01*
X174351803Y-51696005D01*
X174371122Y-51728679D01*
X174383892Y-51763606D01*
X174391436Y-51809586D01*
X174395076Y-51875416D01*
X174396135Y-51969895D01*
X174396154Y-51991077D01*
X174396106Y-51997818D01*
X174200769Y-51997818D01*
X174199632Y-51908651D01*
X174195159Y-51849480D01*
X174185754Y-51811259D01*
X174169824Y-51784947D01*
X174161692Y-51776154D01*
X174114942Y-51742739D01*
X174069553Y-51744263D01*
X174023660Y-51773248D01*
X173996288Y-51804191D01*
X173980077Y-51849357D01*
X173970974Y-51920580D01*
X173970349Y-51928886D01*
X173968796Y-52057963D01*
X173985035Y-52153828D01*
X174018848Y-52215893D01*
X174070016Y-52243568D01*
X174088280Y-52245077D01*
X174136240Y-52237487D01*
X174169047Y-52211192D01*
X174189105Y-52160905D01*
X174198822Y-52081336D01*
X174200769Y-51997818D01*
X174396106Y-51997818D01*
X174395426Y-52091751D01*
X174392371Y-52162094D01*
X174385678Y-52210837D01*
X174374040Y-52246712D01*
X174356147Y-52278452D01*
X174352192Y-52284352D01*
X174285733Y-52363896D01*
X174213315Y-52410071D01*
X174125151Y-52428401D01*
X174095213Y-52429297D01*
X173983114Y-52412744D01*
G36*
X174395426Y-52091751D02*
G01*
X174392371Y-52162094D01*
X174385678Y-52210837D01*
X174374040Y-52246712D01*
X174356147Y-52278452D01*
X174352192Y-52284352D01*
X174285733Y-52363896D01*
X174213315Y-52410071D01*
X174125151Y-52428401D01*
X174095213Y-52429297D01*
X173983114Y-52412744D01*
X173891536Y-52364591D01*
X173823951Y-52287095D01*
X173799943Y-52237273D01*
X173781262Y-52162467D01*
X173771699Y-52067948D01*
X173771611Y-52057963D01*
X173968796Y-52057963D01*
X173985035Y-52153828D01*
X174018848Y-52215893D01*
X174070016Y-52243568D01*
X174088280Y-52245077D01*
X174136240Y-52237487D01*
X174169047Y-52211192D01*
X174189105Y-52160905D01*
X174198822Y-52081336D01*
X174200769Y-51997818D01*
X174199632Y-51908651D01*
X174195159Y-51849480D01*
X174185754Y-51811259D01*
X174169824Y-51784947D01*
X174161692Y-51776154D01*
X174114942Y-51742739D01*
X174069553Y-51744263D01*
X174023660Y-51773248D01*
X173996288Y-51804191D01*
X173980077Y-51849357D01*
X173970974Y-51920580D01*
X173970349Y-51928886D01*
X173968796Y-52057963D01*
X173771611Y-52057963D01*
X173770792Y-51964790D01*
X173778079Y-51864065D01*
X173793097Y-51776847D01*
X173815385Y-51714209D01*
X173822235Y-51703421D01*
X173903368Y-51622895D01*
X173999734Y-51574664D01*
X174104299Y-51560550D01*
X174210032Y-51582371D01*
X174239457Y-51595453D01*
X174296759Y-51635769D01*
X174347050Y-51689225D01*
X174351803Y-51696005D01*
X174371122Y-51728679D01*
X174383892Y-51763606D01*
X174391436Y-51809586D01*
X174395076Y-51875416D01*
X174396135Y-51969895D01*
X174396154Y-51991077D01*
X174396106Y-51997818D01*
X174395426Y-52091751D01*
G37*
X165754776Y-52352162D02*
X165677472Y-52301639D01*
X165640186Y-52256410D01*
X165610647Y-52174337D01*
X165608301Y-52109393D01*
X165613615Y-52022555D01*
X165813885Y-51934897D01*
X165911261Y-51890113D01*
X165974887Y-51854087D01*
X166007971Y-51822883D01*
X166013720Y-51792564D01*
X165995342Y-51759195D01*
X165975077Y-51737077D01*
X165916111Y-51701607D01*
X165851976Y-51699121D01*
X165793074Y-51726765D01*
X165749803Y-51781680D01*
X165742064Y-51801072D01*
X165704994Y-51861636D01*
X165662346Y-51887448D01*
X165603846Y-51909529D01*
X165603846Y-51825816D01*
X165609018Y-51768850D01*
X165629277Y-51720811D01*
X165671738Y-51665654D01*
X165678049Y-51658486D01*
X165725280Y-51609415D01*
X165765879Y-51583080D01*
X165816672Y-51570965D01*
X165858780Y-51566997D01*
X165934098Y-51566009D01*
X165987714Y-51578534D01*
X166021162Y-51597131D01*
X166073732Y-51638025D01*
X166110121Y-51682252D01*
X166133150Y-51737874D01*
X166145641Y-51812953D01*
X166150413Y-51915551D01*
X166150794Y-51967624D01*
X166149499Y-52030052D01*
X166031529Y-52030052D01*
X166030161Y-51996562D01*
X166026751Y-51991077D01*
X166004247Y-51998528D01*
X165955818Y-52018247D01*
X165891092Y-52046282D01*
X165877557Y-52052308D01*
X165795756Y-52093904D01*
X165750688Y-52130462D01*
X165740783Y-52164704D01*
X165764474Y-52199352D01*
X165784040Y-52214661D01*
X165854640Y-52245279D01*
X165920720Y-52240220D01*
X165976041Y-52202849D01*
X166014364Y-52136527D01*
X166026651Y-52083884D01*
X166031529Y-52030052D01*
X166149499Y-52030052D01*
X166148270Y-52089280D01*
X166138968Y-52179290D01*
X166120540Y-52244833D01*
X166090640Y-52293088D01*
X166046920Y-52331233D01*
X166027859Y-52343560D01*
X165941274Y-52375664D01*
X165846478Y-52377684D01*
X165754776Y-52352162D01*
G36*
X166148270Y-52089280D02*
G01*
X166138968Y-52179290D01*
X166120540Y-52244833D01*
X166090640Y-52293088D01*
X166046920Y-52331233D01*
X166027859Y-52343560D01*
X165941274Y-52375664D01*
X165846478Y-52377684D01*
X165754776Y-52352162D01*
X165677472Y-52301639D01*
X165640186Y-52256410D01*
X165610647Y-52174337D01*
X165610299Y-52164704D01*
X165740783Y-52164704D01*
X165764474Y-52199352D01*
X165784040Y-52214661D01*
X165854640Y-52245279D01*
X165920720Y-52240220D01*
X165976041Y-52202849D01*
X166014364Y-52136527D01*
X166026651Y-52083884D01*
X166031529Y-52030052D01*
X166030161Y-51996562D01*
X166026751Y-51991077D01*
X166004247Y-51998528D01*
X165955818Y-52018247D01*
X165891092Y-52046282D01*
X165877557Y-52052308D01*
X165795756Y-52093904D01*
X165750688Y-52130462D01*
X165740783Y-52164704D01*
X165610299Y-52164704D01*
X165608301Y-52109393D01*
X165613615Y-52022555D01*
X165813885Y-51934897D01*
X165911261Y-51890113D01*
X165974887Y-51854087D01*
X166007971Y-51822883D01*
X166013720Y-51792564D01*
X165995342Y-51759195D01*
X165975077Y-51737077D01*
X165916111Y-51701607D01*
X165851976Y-51699121D01*
X165793074Y-51726765D01*
X165749803Y-51781680D01*
X165742064Y-51801072D01*
X165704994Y-51861636D01*
X165662346Y-51887448D01*
X165603846Y-51909529D01*
X165603846Y-51825816D01*
X165609018Y-51768850D01*
X165629277Y-51720811D01*
X165671738Y-51665654D01*
X165678049Y-51658486D01*
X165725280Y-51609415D01*
X165765879Y-51583080D01*
X165816672Y-51570965D01*
X165858780Y-51566997D01*
X165934098Y-51566009D01*
X165987714Y-51578534D01*
X166021162Y-51597131D01*
X166073732Y-51638025D01*
X166110121Y-51682252D01*
X166133150Y-51737874D01*
X166145641Y-51812953D01*
X166150413Y-51915551D01*
X166150794Y-51967624D01*
X166149499Y-52030052D01*
X166148270Y-52089280D01*
G37*
X168397919Y-52219711D02*
X168398167Y-52073680D01*
X168399128Y-51961345D01*
X168401206Y-51877322D01*
X168404807Y-51816231D01*
X168410335Y-51772691D01*
X168418196Y-51741321D01*
X168428793Y-51716738D01*
X168436818Y-51702706D01*
X168503272Y-51626612D01*
X168587530Y-51578916D01*
X168680751Y-51561801D01*
X168774100Y-51577454D01*
X168829688Y-51605582D01*
X168888043Y-51654240D01*
X168927814Y-51713667D01*
X168951810Y-51791493D01*
X168962839Y-51895348D01*
X168964401Y-51971538D01*
X168964191Y-51977014D01*
X168827692Y-51977014D01*
X168826859Y-51889645D01*
X168823039Y-51831808D01*
X168814254Y-51793971D01*
X168798526Y-51766602D01*
X168779734Y-51745958D01*
X168716625Y-51706110D01*
X168648863Y-51702705D01*
X168584821Y-51735975D01*
X168579836Y-51740483D01*
X168558561Y-51763933D01*
X168545221Y-51791834D01*
X168537999Y-51833359D01*
X168535077Y-51897684D01*
X168534615Y-51968800D01*
X168535617Y-52058142D01*
X168539762Y-52117742D01*
X168548764Y-52156911D01*
X168564333Y-52184960D01*
X168577098Y-52199856D01*
X168636400Y-52237425D01*
X168704699Y-52241943D01*
X168769890Y-52213247D01*
X168782472Y-52202594D01*
X168803889Y-52178937D01*
X168817256Y-52150749D01*
X168824434Y-52108755D01*
X168827281Y-52043681D01*
X168827692Y-51977014D01*
X168964191Y-51977014D01*
X168959678Y-52094235D01*
X168943638Y-52186423D01*
X168913472Y-52255731D01*
X168866371Y-52309789D01*
X168829688Y-52337495D01*
X168763010Y-52367428D01*
X168685728Y-52381322D01*
X168613890Y-52377603D01*
X168573692Y-52362600D01*
X168557918Y-52358330D01*
X168547450Y-52374250D01*
X168540144Y-52416911D01*
X168534615Y-52481894D01*
X168528563Y-52554268D01*
X168520156Y-52597813D01*
X168504859Y-52622713D01*
X168478136Y-52639155D01*
X168461346Y-52646436D01*
X168397846Y-52673037D01*
X168397919Y-52219711D01*
G36*
X168959678Y-52094235D02*
G01*
X168943638Y-52186423D01*
X168913472Y-52255731D01*
X168866371Y-52309789D01*
X168829688Y-52337495D01*
X168763010Y-52367428D01*
X168685728Y-52381322D01*
X168613890Y-52377603D01*
X168573692Y-52362600D01*
X168557918Y-52358330D01*
X168547450Y-52374250D01*
X168540144Y-52416911D01*
X168534615Y-52481894D01*
X168528563Y-52554268D01*
X168520156Y-52597813D01*
X168504859Y-52622713D01*
X168478136Y-52639155D01*
X168461346Y-52646436D01*
X168397846Y-52673037D01*
X168397919Y-52219711D01*
X168398167Y-52073680D01*
X168399064Y-51968800D01*
X168534615Y-51968800D01*
X168535617Y-52058142D01*
X168539762Y-52117742D01*
X168548764Y-52156911D01*
X168564333Y-52184960D01*
X168577098Y-52199856D01*
X168636400Y-52237425D01*
X168704699Y-52241943D01*
X168769890Y-52213247D01*
X168782472Y-52202594D01*
X168803889Y-52178937D01*
X168817256Y-52150749D01*
X168824434Y-52108755D01*
X168827281Y-52043681D01*
X168827692Y-51977014D01*
X168826859Y-51889645D01*
X168823039Y-51831808D01*
X168814254Y-51793971D01*
X168798526Y-51766602D01*
X168779734Y-51745958D01*
X168716625Y-51706110D01*
X168648863Y-51702705D01*
X168584821Y-51735975D01*
X168579836Y-51740483D01*
X168558561Y-51763933D01*
X168545221Y-51791834D01*
X168537999Y-51833359D01*
X168535077Y-51897684D01*
X168534615Y-51968800D01*
X168399064Y-51968800D01*
X168399128Y-51961345D01*
X168401206Y-51877322D01*
X168404807Y-51816231D01*
X168410335Y-51772691D01*
X168418196Y-51741321D01*
X168428793Y-51716738D01*
X168436818Y-51702706D01*
X168503272Y-51626612D01*
X168587530Y-51578916D01*
X168680751Y-51561801D01*
X168774100Y-51577454D01*
X168829688Y-51605582D01*
X168888043Y-51654240D01*
X168927814Y-51713667D01*
X168951810Y-51791493D01*
X168962839Y-51895348D01*
X168964401Y-51971538D01*
X168964191Y-51977014D01*
X168959678Y-52094235D01*
G37*
X172465746Y-52400255D02*
X172388714Y-52348433D01*
X172329184Y-52273588D01*
X172293622Y-52178346D01*
X172286429Y-52108244D01*
X172287246Y-52078991D01*
X172294086Y-52056593D01*
X172312888Y-52036526D01*
X172349592Y-52014267D01*
X172410138Y-51985291D01*
X172500466Y-51945073D01*
X172500923Y-51944871D01*
X172584067Y-51906790D01*
X172652247Y-51872975D01*
X172698495Y-51847067D01*
X172715842Y-51832705D01*
X172715846Y-51832589D01*
X172700557Y-51801315D01*
X172664804Y-51766843D01*
X172623758Y-51742010D01*
X172602963Y-51737077D01*
X172546230Y-51754138D01*
X172497373Y-51796867D01*
X172473535Y-51843845D01*
X172450603Y-51878478D01*
X172405682Y-51917919D01*
X172352877Y-51951991D01*
X172306290Y-51970520D01*
X172296548Y-51971538D01*
X172285582Y-51954785D01*
X172284921Y-51911961D01*
X172292980Y-51854219D01*
X172308173Y-51792711D01*
X172328914Y-51738591D01*
X172329962Y-51736490D01*
X172392379Y-51649340D01*
X172473274Y-51590061D01*
X172565144Y-51560966D01*
X172660487Y-51564366D01*
X172751802Y-51602572D01*
X172755862Y-51605259D01*
X172827694Y-51670358D01*
X172874927Y-51755295D01*
X172901066Y-51866979D01*
X172904574Y-51898357D01*
X172910787Y-52046464D01*
X172903339Y-52115532D01*
X172715846Y-52115532D01*
X172713410Y-52072448D01*
X172700086Y-52059874D01*
X172666868Y-52069281D01*
X172614506Y-52091517D01*
X172555976Y-52119390D01*
X172554521Y-52120128D01*
X172504911Y-52146223D01*
X172485000Y-52163637D01*
X172489910Y-52181893D01*
X172510584Y-52205880D01*
X172563181Y-52240594D01*
X172619823Y-52243144D01*
X172670631Y-52217881D01*
X172705724Y-52169153D01*
X172715846Y-52115532D01*
X172903339Y-52115532D01*
X172898008Y-52164964D01*
X172865222Y-52258945D01*
X172819579Y-52324785D01*
X172737198Y-52391319D01*
X172646454Y-52424324D01*
X172553815Y-52426427D01*
X172465746Y-52400255D01*
G36*
X172898008Y-52164964D02*
G01*
X172865222Y-52258945D01*
X172819579Y-52324785D01*
X172737198Y-52391319D01*
X172646454Y-52424324D01*
X172553815Y-52426427D01*
X172465746Y-52400255D01*
X172388714Y-52348433D01*
X172329184Y-52273588D01*
X172293622Y-52178346D01*
X172292113Y-52163637D01*
X172485000Y-52163637D01*
X172489910Y-52181893D01*
X172510584Y-52205880D01*
X172563181Y-52240594D01*
X172619823Y-52243144D01*
X172670631Y-52217881D01*
X172705724Y-52169153D01*
X172715846Y-52115532D01*
X172713410Y-52072448D01*
X172700086Y-52059874D01*
X172666868Y-52069281D01*
X172614506Y-52091517D01*
X172555976Y-52119390D01*
X172554521Y-52120128D01*
X172504911Y-52146223D01*
X172485000Y-52163637D01*
X172292113Y-52163637D01*
X172286429Y-52108244D01*
X172287246Y-52078991D01*
X172294086Y-52056593D01*
X172312888Y-52036526D01*
X172349592Y-52014267D01*
X172410138Y-51985291D01*
X172500466Y-51945073D01*
X172500923Y-51944871D01*
X172584067Y-51906790D01*
X172652247Y-51872975D01*
X172698495Y-51847067D01*
X172715842Y-51832705D01*
X172715846Y-51832589D01*
X172700557Y-51801315D01*
X172664804Y-51766843D01*
X172623758Y-51742010D01*
X172602963Y-51737077D01*
X172546230Y-51754138D01*
X172497373Y-51796867D01*
X172473535Y-51843845D01*
X172450603Y-51878478D01*
X172405682Y-51917919D01*
X172352877Y-51951991D01*
X172306290Y-51970520D01*
X172296548Y-51971538D01*
X172285582Y-51954785D01*
X172284921Y-51911961D01*
X172292980Y-51854219D01*
X172308173Y-51792711D01*
X172328914Y-51738591D01*
X172329962Y-51736490D01*
X172392379Y-51649340D01*
X172473274Y-51590061D01*
X172565144Y-51560966D01*
X172660487Y-51564366D01*
X172751802Y-51602572D01*
X172755862Y-51605259D01*
X172827694Y-51670358D01*
X172874927Y-51755295D01*
X172901066Y-51866979D01*
X172904574Y-51898357D01*
X172910787Y-52046464D01*
X172903339Y-52115532D01*
X172898008Y-52164964D01*
G37*
X169946499Y-52373697D02*
X169869940Y-52345267D01*
X169869064Y-52344721D01*
X169821715Y-52309873D01*
X169786759Y-52269148D01*
X169762175Y-52216075D01*
X169745938Y-52144186D01*
X169736025Y-52047008D01*
X169730414Y-51918072D01*
X169729923Y-51899702D01*
X169722859Y-51622713D01*
X169782305Y-51591972D01*
X169825319Y-51571198D01*
X169851290Y-51561354D01*
X169852491Y-51561231D01*
X169856986Y-51579394D01*
X169860556Y-51628388D01*
X169862752Y-51699969D01*
X169863231Y-51757932D01*
X169863242Y-51851830D01*
X169867534Y-51910797D01*
X169882497Y-51938921D01*
X169914518Y-51940294D01*
X169969986Y-51919002D01*
X170053731Y-51879864D01*
X170115311Y-51847357D01*
X170146983Y-51819155D01*
X170156294Y-51788418D01*
X170156308Y-51786896D01*
X170140943Y-51733946D01*
X170095453Y-51705340D01*
X170025834Y-51701197D01*
X169975687Y-51701916D01*
X169949246Y-51687473D01*
X169932757Y-51652782D01*
X169923267Y-51608584D01*
X169936943Y-51583507D01*
X169942093Y-51579918D01*
X169990575Y-51565504D01*
X170058469Y-51563463D01*
X170128388Y-51573017D01*
X170177932Y-51590478D01*
X170246430Y-51648636D01*
X170285366Y-51729592D01*
X170293077Y-51792840D01*
X170287193Y-51849889D01*
X170265899Y-51896458D01*
X170223735Y-51937819D01*
X170155241Y-51979245D01*
X170054956Y-52026007D01*
X170048846Y-52028650D01*
X169958510Y-52070383D01*
X169902765Y-52104609D01*
X169878871Y-52135365D01*
X169884087Y-52166689D01*
X169915672Y-52202617D01*
X169925117Y-52210884D01*
X169988383Y-52242942D01*
X170053936Y-52241593D01*
X170111028Y-52210162D01*
X170148907Y-52151976D01*
X170152426Y-52140554D01*
X170186700Y-52085163D01*
X170230191Y-52058482D01*
X170293077Y-52032040D01*
X170293077Y-52100452D01*
X170273948Y-52199890D01*
X170217169Y-52291098D01*
X170187622Y-52321611D01*
X170120458Y-52360772D01*
X170035044Y-52378500D01*
X169946499Y-52373697D01*
G36*
X169856986Y-51579394D02*
G01*
X169860556Y-51628388D01*
X169862752Y-51699969D01*
X169863231Y-51757932D01*
X169863242Y-51851830D01*
X169867534Y-51910797D01*
X169882497Y-51938921D01*
X169914518Y-51940294D01*
X169969986Y-51919002D01*
X170053731Y-51879864D01*
X170115311Y-51847357D01*
X170146983Y-51819155D01*
X170156294Y-51788418D01*
X170156308Y-51786896D01*
X170140943Y-51733946D01*
X170095453Y-51705340D01*
X170025834Y-51701197D01*
X169975687Y-51701916D01*
X169949246Y-51687473D01*
X169932757Y-51652782D01*
X169923267Y-51608584D01*
X169936943Y-51583507D01*
X169942093Y-51579918D01*
X169990575Y-51565504D01*
X170058469Y-51563463D01*
X170128388Y-51573017D01*
X170177932Y-51590478D01*
X170246430Y-51648636D01*
X170285366Y-51729592D01*
X170293077Y-51792840D01*
X170287193Y-51849889D01*
X170265899Y-51896458D01*
X170223735Y-51937819D01*
X170155241Y-51979245D01*
X170054956Y-52026007D01*
X170048846Y-52028650D01*
X169958510Y-52070383D01*
X169902765Y-52104609D01*
X169878871Y-52135365D01*
X169884087Y-52166689D01*
X169915672Y-52202617D01*
X169925117Y-52210884D01*
X169988383Y-52242942D01*
X170053936Y-52241593D01*
X170111028Y-52210162D01*
X170148907Y-52151976D01*
X170152426Y-52140554D01*
X170186700Y-52085163D01*
X170230191Y-52058482D01*
X170293077Y-52032040D01*
X170293077Y-52100452D01*
X170273948Y-52199890D01*
X170217169Y-52291098D01*
X170187622Y-52321611D01*
X170120458Y-52360772D01*
X170035044Y-52378500D01*
X169946499Y-52373697D01*
X169869940Y-52345267D01*
X169869064Y-52344721D01*
X169821715Y-52309873D01*
X169786759Y-52269148D01*
X169762175Y-52216075D01*
X169745938Y-52144186D01*
X169736025Y-52047008D01*
X169730414Y-51918072D01*
X169729923Y-51899702D01*
X169722859Y-51622713D01*
X169782305Y-51591972D01*
X169825319Y-51571198D01*
X169851290Y-51561354D01*
X169852491Y-51561231D01*
X169856986Y-51579394D01*
G37*
X167112667Y-52366472D02*
X167056410Y-52340883D01*
X167012253Y-52309876D01*
X166979899Y-52275205D01*
X166957562Y-52230480D01*
X166943454Y-52169308D01*
X166935789Y-52085299D01*
X166932780Y-51972060D01*
X166932462Y-51897491D01*
X166932462Y-51606580D01*
X166982227Y-51583905D01*
X167021424Y-51567333D01*
X167040843Y-51561231D01*
X167044558Y-51579390D01*
X167047505Y-51628352D01*
X167049309Y-51699847D01*
X167049692Y-51756615D01*
X167051339Y-51838629D01*
X167055778Y-51903691D01*
X167062260Y-51943533D01*
X167067410Y-51952000D01*
X167102023Y-51943354D01*
X167156360Y-51921177D01*
X167219278Y-51891114D01*
X167279632Y-51858808D01*
X167326279Y-51829902D01*
X167348074Y-51810039D01*
X167348161Y-51809825D01*
X167346286Y-51773065D01*
X167329475Y-51737974D01*
X167299961Y-51709472D01*
X167256884Y-51699939D01*
X167220068Y-51701050D01*
X167167926Y-51701867D01*
X167140556Y-51689651D01*
X167124118Y-51657376D01*
X167122045Y-51651290D01*
X167114919Y-51605261D01*
X167133976Y-51577313D01*
X167183647Y-51563993D01*
X167237303Y-51561530D01*
X167333858Y-51579790D01*
X167383841Y-51605869D01*
X167445571Y-51667132D01*
X167478310Y-51742330D01*
X167481247Y-51821789D01*
X167453576Y-51895833D01*
X167411953Y-51942231D01*
X167370396Y-51968207D01*
X167305078Y-52001093D01*
X167228962Y-52034443D01*
X167216274Y-52039539D01*
X167132667Y-52076435D01*
X167084470Y-52108954D01*
X167068970Y-52141282D01*
X167083450Y-52177606D01*
X167108308Y-52206000D01*
X167167061Y-52240961D01*
X167231707Y-52243583D01*
X167290992Y-52216642D01*
X167333661Y-52162912D01*
X167339261Y-52149050D01*
X167371867Y-52098064D01*
X167419470Y-52060213D01*
X167479539Y-52029150D01*
X167479539Y-52117232D01*
X167476003Y-52171049D01*
X167460844Y-52213466D01*
X167427232Y-52258721D01*
X167394965Y-52293580D01*
X167344791Y-52342938D01*
X167305807Y-52369453D01*
X167263936Y-52380089D01*
X167216540Y-52381846D01*
X167112667Y-52366472D01*
G36*
X167044558Y-51579390D02*
G01*
X167047505Y-51628352D01*
X167049309Y-51699847D01*
X167049692Y-51756615D01*
X167051339Y-51838629D01*
X167055778Y-51903691D01*
X167062260Y-51943533D01*
X167067410Y-51952000D01*
X167102023Y-51943354D01*
X167156360Y-51921177D01*
X167219278Y-51891114D01*
X167279632Y-51858808D01*
X167326279Y-51829902D01*
X167348074Y-51810039D01*
X167348161Y-51809825D01*
X167346286Y-51773065D01*
X167329475Y-51737974D01*
X167299961Y-51709472D01*
X167256884Y-51699939D01*
X167220068Y-51701050D01*
X167167926Y-51701867D01*
X167140556Y-51689651D01*
X167124118Y-51657376D01*
X167122045Y-51651290D01*
X167114919Y-51605261D01*
X167133976Y-51577313D01*
X167183647Y-51563993D01*
X167237303Y-51561530D01*
X167333858Y-51579790D01*
X167383841Y-51605869D01*
X167445571Y-51667132D01*
X167478310Y-51742330D01*
X167481247Y-51821789D01*
X167453576Y-51895833D01*
X167411953Y-51942231D01*
X167370396Y-51968207D01*
X167305078Y-52001093D01*
X167228962Y-52034443D01*
X167216274Y-52039539D01*
X167132667Y-52076435D01*
X167084470Y-52108954D01*
X167068970Y-52141282D01*
X167083450Y-52177606D01*
X167108308Y-52206000D01*
X167167061Y-52240961D01*
X167231707Y-52243583D01*
X167290992Y-52216642D01*
X167333661Y-52162912D01*
X167339261Y-52149050D01*
X167371867Y-52098064D01*
X167419470Y-52060213D01*
X167479539Y-52029150D01*
X167479539Y-52117232D01*
X167476003Y-52171049D01*
X167460844Y-52213466D01*
X167427232Y-52258721D01*
X167394965Y-52293580D01*
X167344791Y-52342938D01*
X167305807Y-52369453D01*
X167263936Y-52380089D01*
X167216540Y-52381846D01*
X167112667Y-52366472D01*
X167056410Y-52340883D01*
X167012253Y-52309876D01*
X166979899Y-52275205D01*
X166957562Y-52230480D01*
X166943454Y-52169308D01*
X166935789Y-52085299D01*
X166932780Y-51972060D01*
X166932462Y-51897491D01*
X166932462Y-51606580D01*
X166982227Y-51583905D01*
X167021424Y-51567333D01*
X167040843Y-51561231D01*
X167044558Y-51579390D01*
G37*
X173231114Y-52415495D02*
X173156461Y-52378273D01*
X173090569Y-52309739D01*
X173072423Y-52284352D01*
X173052655Y-52251134D01*
X173039828Y-52215055D01*
X173032490Y-52166902D01*
X173029187Y-52097464D01*
X173028462Y-52005794D01*
X173031737Y-51880170D01*
X173043123Y-51785846D01*
X173064959Y-51715477D01*
X173099581Y-51661714D01*
X173149330Y-51617212D01*
X173152986Y-51614577D01*
X173202015Y-51587623D01*
X173261055Y-51574288D01*
X173336141Y-51571000D01*
X173458205Y-51571000D01*
X173458256Y-51452503D01*
X173459392Y-51386508D01*
X173466314Y-51347798D01*
X173484402Y-51324581D01*
X173519038Y-51305067D01*
X173527355Y-51301080D01*
X173566280Y-51282397D01*
X173596417Y-51270597D01*
X173618826Y-51269578D01*
X173634567Y-51283239D01*
X173644698Y-51315478D01*
X173650277Y-51370196D01*
X173652365Y-51451289D01*
X173652019Y-51562656D01*
X173650300Y-51708198D01*
X173649763Y-51751731D01*
X173647828Y-51901795D01*
X173646096Y-51999958D01*
X173458308Y-51999958D01*
X173457252Y-51916636D01*
X173452562Y-51862120D01*
X173441949Y-51826163D01*
X173423128Y-51798518D01*
X173410350Y-51785035D01*
X173358110Y-51745583D01*
X173311858Y-51742372D01*
X173264133Y-51774951D01*
X173262923Y-51776154D01*
X173243506Y-51801332D01*
X173231693Y-51835553D01*
X173225735Y-51888252D01*
X173223880Y-51968869D01*
X173223846Y-51986729D01*
X173228330Y-52097825D01*
X173242926Y-52174839D01*
X173269350Y-52221853D01*
X173309317Y-52242950D01*
X173332416Y-52245077D01*
X173387238Y-52235100D01*
X173424842Y-52202248D01*
X173447477Y-52142143D01*
X173457394Y-52050402D01*
X173458308Y-51999958D01*
X173646096Y-51999958D01*
X173645778Y-52017940D01*
X173643127Y-52105321D01*
X173639394Y-52169095D01*
X173634093Y-52214418D01*
X173626742Y-52246445D01*
X173616857Y-52270332D01*
X173603954Y-52291236D01*
X173598421Y-52299102D01*
X173525031Y-52373405D01*
X173432240Y-52415533D01*
X173324904Y-52427278D01*
X173231114Y-52415495D01*
G36*
X173645778Y-52017940D02*
G01*
X173643127Y-52105321D01*
X173639394Y-52169095D01*
X173634093Y-52214418D01*
X173626742Y-52246445D01*
X173616857Y-52270332D01*
X173603954Y-52291236D01*
X173598421Y-52299102D01*
X173525031Y-52373405D01*
X173432240Y-52415533D01*
X173324904Y-52427278D01*
X173231114Y-52415495D01*
X173156461Y-52378273D01*
X173090569Y-52309739D01*
X173072423Y-52284352D01*
X173052655Y-52251134D01*
X173039828Y-52215055D01*
X173032490Y-52166902D01*
X173029187Y-52097464D01*
X173028462Y-52005794D01*
X173028959Y-51986729D01*
X173223846Y-51986729D01*
X173228330Y-52097825D01*
X173242926Y-52174839D01*
X173269350Y-52221853D01*
X173309317Y-52242950D01*
X173332416Y-52245077D01*
X173387238Y-52235100D01*
X173424842Y-52202248D01*
X173447477Y-52142143D01*
X173457394Y-52050402D01*
X173458308Y-51999958D01*
X173457252Y-51916636D01*
X173452562Y-51862120D01*
X173441949Y-51826163D01*
X173423128Y-51798518D01*
X173410350Y-51785035D01*
X173358110Y-51745583D01*
X173311858Y-51742372D01*
X173264133Y-51774951D01*
X173262923Y-51776154D01*
X173243506Y-51801332D01*
X173231693Y-51835553D01*
X173225735Y-51888252D01*
X173223880Y-51968869D01*
X173223846Y-51986729D01*
X173028959Y-51986729D01*
X173031737Y-51880170D01*
X173043123Y-51785846D01*
X173064959Y-51715477D01*
X173099581Y-51661714D01*
X173149330Y-51617212D01*
X173152986Y-51614577D01*
X173202015Y-51587623D01*
X173261055Y-51574288D01*
X173336141Y-51571000D01*
X173458205Y-51571000D01*
X173458256Y-51452503D01*
X173459392Y-51386508D01*
X173466314Y-51347798D01*
X173484402Y-51324581D01*
X173519038Y-51305067D01*
X173527355Y-51301080D01*
X173566280Y-51282397D01*
X173596417Y-51270597D01*
X173618826Y-51269578D01*
X173634567Y-51283239D01*
X173644698Y-51315478D01*
X173650277Y-51370196D01*
X173652365Y-51451289D01*
X173652019Y-51562656D01*
X173650300Y-51708198D01*
X173649763Y-51751731D01*
X173647828Y-51901795D01*
X173646096Y-51999958D01*
X173645778Y-52017940D01*
G37*
X169860122Y-58712224D02*
X169754388Y-58711645D01*
X169677868Y-58710078D01*
X169625628Y-58707028D01*
X169592737Y-58702004D01*
X169574263Y-58694511D01*
X169565273Y-58684056D01*
X169560837Y-58670147D01*
X169560406Y-58668346D01*
X169553667Y-58635855D01*
X169541192Y-58571748D01*
X169524281Y-58482849D01*
X169504229Y-58375981D01*
X169482336Y-58257967D01*
X169481571Y-58253822D01*
X169459641Y-58138169D01*
X169439123Y-58035986D01*
X169421341Y-57953402D01*
X169407619Y-57896544D01*
X169399282Y-57871542D01*
X169398884Y-57871099D01*
X169374323Y-57858890D01*
X169323685Y-57838544D01*
X169257905Y-57814455D01*
X169257539Y-57814326D01*
X169174683Y-57783182D01*
X169077000Y-57743509D01*
X168984923Y-57703619D01*
X168980566Y-57701647D01*
X168830593Y-57633580D01*
X168498502Y-57860361D01*
X168396626Y-57929496D01*
X168304343Y-57991303D01*
X168226997Y-58042267D01*
X168169936Y-58078873D01*
X168138505Y-58097606D01*
X168135521Y-58098996D01*
X168112679Y-58092810D01*
X168070018Y-58062965D01*
X168005872Y-58008053D01*
X167918579Y-57926666D01*
X167829465Y-57840078D01*
X167743559Y-57754753D01*
X167666673Y-57676892D01*
X167603436Y-57611303D01*
X167558477Y-57562795D01*
X167536424Y-57536175D01*
X167535604Y-57534805D01*
X167533166Y-57516537D01*
X167542350Y-57486705D01*
X167565426Y-57441279D01*
X167604663Y-57376230D01*
X167662330Y-57287530D01*
X167739205Y-57173343D01*
X167807430Y-57072838D01*
X167868418Y-56982697D01*
X167918644Y-56908151D01*
X167954584Y-56854435D01*
X167972713Y-56826782D01*
X167973854Y-56824905D01*
X167971641Y-56798410D01*
X167954862Y-56746914D01*
X167926858Y-56680149D01*
X167916878Y-56658828D01*
X167873328Y-56563841D01*
X167826866Y-56456063D01*
X167789123Y-56362808D01*
X167761927Y-56293594D01*
X167740325Y-56240994D01*
X167727842Y-56213503D01*
X167726291Y-56211384D01*
X167703332Y-56207876D01*
X167649214Y-56198262D01*
X167571132Y-56183911D01*
X167476281Y-56166193D01*
X167371857Y-56146475D01*
X167265056Y-56126126D01*
X167163074Y-56106514D01*
X167073106Y-56089009D01*
X167002347Y-56074978D01*
X166957994Y-56065791D01*
X166947115Y-56063193D01*
X166935878Y-56056782D01*
X166927395Y-56042303D01*
X166921286Y-56014867D01*
X166917168Y-55969589D01*
X166914659Y-55901580D01*
X166913379Y-55805953D01*
X166912946Y-55677820D01*
X166912923Y-55625299D01*
X166912923Y-55198155D01*
X167015500Y-55177909D01*
X167072569Y-55166930D01*
X167157731Y-55150905D01*
X167260628Y-55131767D01*
X167370904Y-55111449D01*
X167401385Y-55105868D01*
X167503145Y-55086083D01*
X167591795Y-55066627D01*
X167659892Y-55049303D01*
X167699996Y-55035912D01*
X167706677Y-55031921D01*
X167723081Y-55003658D01*
X167746601Y-54948891D01*
X167772684Y-54878412D01*
X167777858Y-54863231D01*
X167812044Y-54769104D01*
X167854477Y-54662899D01*
X167896003Y-54567527D01*
X167896208Y-54567084D01*
X167965360Y-54417475D01*
X167510488Y-53748383D01*
X167802500Y-53455884D01*
X167890820Y-53368830D01*
X167971375Y-53292091D01*
X168039640Y-53229763D01*
X168091092Y-53185944D01*
X168121206Y-53164730D01*
X168125526Y-53163384D01*
X168150889Y-53173984D01*
X168202642Y-53203453D01*
X168275132Y-53248295D01*
X168362706Y-53305016D01*
X168457388Y-53368538D01*
X168553484Y-53433332D01*
X168639163Y-53489713D01*
X168708984Y-53534212D01*
X168757506Y-53563361D01*
X168779218Y-53573692D01*
X168805707Y-53564950D01*
X168855938Y-53541913D01*
X168919549Y-53509369D01*
X168926292Y-53505751D01*
X169011954Y-53462790D01*
X169070694Y-53441721D01*
X169107228Y-53441497D01*
X169126269Y-53461072D01*
X169126380Y-53461346D01*
X169135898Y-53484528D01*
X169158597Y-53539559D01*
X169192718Y-53622178D01*
X169236500Y-53728128D01*
X169288184Y-53853148D01*
X169346008Y-53992980D01*
X169402009Y-54128363D01*
X169463553Y-54277766D01*
X169520061Y-54416168D01*
X169569839Y-54539327D01*
X169611194Y-54642998D01*
X169642432Y-54722941D01*
X169661859Y-54774912D01*
X169667846Y-54794308D01*
X169652832Y-54816557D01*
X169613561Y-54852018D01*
X169561193Y-54891113D01*
X169412059Y-55014755D01*
X169295489Y-55156478D01*
X169212882Y-55313296D01*
X169165634Y-55482225D01*
X169155143Y-55660278D01*
X169162769Y-55742461D01*
X169204318Y-55912969D01*
X169275877Y-56063541D01*
X169373005Y-56192691D01*
X169491266Y-56298936D01*
X169626220Y-56380790D01*
X169773429Y-56436768D01*
X169928456Y-56465385D01*
X170086861Y-56465156D01*
X170244206Y-56434595D01*
X170396054Y-56372218D01*
X170537965Y-56276540D01*
X170597197Y-56222428D01*
X170710797Y-56083480D01*
X170789894Y-55931639D01*
X170835014Y-55771333D01*
X170846684Y-55606988D01*
X170825431Y-55443029D01*
X170771780Y-55283882D01*
X170686260Y-55133975D01*
X170569395Y-54997733D01*
X170438807Y-54891113D01*
X170384412Y-54850358D01*
X170345986Y-54815282D01*
X170332154Y-54794274D01*
X170339397Y-54771365D01*
X170359995Y-54716635D01*
X170392254Y-54634328D01*
X170434479Y-54528685D01*
X170484977Y-54403950D01*
X170542052Y-54264364D01*
X170598146Y-54128330D01*
X170660033Y-53978799D01*
X170717356Y-53840233D01*
X170768356Y-53716893D01*
X170811273Y-53613036D01*
X170844347Y-53532920D01*
X170865819Y-53480805D01*
X170873775Y-53461346D01*
X170892571Y-53441577D01*
X170928926Y-53441635D01*
X170987521Y-53462559D01*
X171073032Y-53505387D01*
X171073708Y-53505751D01*
X171138093Y-53538988D01*
X171190139Y-53563198D01*
X171219488Y-53573596D01*
X171220783Y-53573692D01*
X171242876Y-53563145D01*
X171291652Y-53533816D01*
X171361669Y-53489173D01*
X171447486Y-53432686D01*
X171542612Y-53368538D01*
X171639460Y-53303589D01*
X171726747Y-53247104D01*
X171798819Y-53202579D01*
X171850023Y-53173510D01*
X171874474Y-53163384D01*
X171896990Y-53176693D01*
X171942258Y-53213888D01*
X172005756Y-53270872D01*
X172082961Y-53343551D01*
X172169349Y-53427829D01*
X172197601Y-53455984D01*
X172489713Y-53748584D01*
X172267369Y-54074896D01*
X172199798Y-54175103D01*
X172140493Y-54265037D01*
X172092783Y-54339490D01*
X172059993Y-54393249D01*
X172045452Y-54421106D01*
X172045026Y-54423088D01*
X172052692Y-54449345D01*
X172073311Y-54502163D01*
X172103315Y-54572690D01*
X172124375Y-54619907D01*
X172163752Y-54710306D01*
X172200835Y-54801634D01*
X172229585Y-54878800D01*
X172237395Y-54902308D01*
X172259583Y-54965084D01*
X172281273Y-55013589D01*
X172293187Y-55031921D01*
X172319477Y-55043141D01*
X172376858Y-55059046D01*
X172457882Y-55077833D01*
X172555105Y-55097701D01*
X172598615Y-55105868D01*
X172709104Y-55126171D01*
X172815084Y-55145830D01*
X172906199Y-55162912D01*
X172972092Y-55175482D01*
X172984500Y-55177909D01*
X173087077Y-55198155D01*
X173087077Y-55625299D01*
X173086847Y-55765754D01*
X173085901Y-55872021D01*
X173083859Y-55948987D01*
X173080338Y-56001540D01*
X173074957Y-56034567D01*
X173067334Y-56052955D01*
X173057088Y-56061592D01*
X173052885Y-56063193D01*
X173027530Y-56068873D01*
X172971516Y-56080205D01*
X172892036Y-56095821D01*
X172796288Y-56114353D01*
X172691467Y-56134431D01*
X172584768Y-56154688D01*
X172483387Y-56173754D01*
X172394521Y-56190261D01*
X172325363Y-56202841D01*
X172283111Y-56210125D01*
X172273710Y-56211384D01*
X172265193Y-56228237D01*
X172246340Y-56273130D01*
X172220676Y-56337570D01*
X172210877Y-56362808D01*
X172171352Y-56460314D01*
X172124808Y-56568041D01*
X172083123Y-56658828D01*
X172052450Y-56728247D01*
X172032044Y-56785290D01*
X172025232Y-56820223D01*
X172026318Y-56824905D01*
X172040715Y-56847009D01*
X172073588Y-56896169D01*
X172121410Y-56967152D01*
X172180652Y-57054722D01*
X172247785Y-57153643D01*
X172261059Y-57173170D01*
X172338954Y-57288860D01*
X172396213Y-57376956D01*
X172435119Y-57441514D01*
X172457956Y-57486589D01*
X172467006Y-57516237D01*
X172464552Y-57534515D01*
X172464489Y-57534631D01*
X172445173Y-57558639D01*
X172402449Y-57605053D01*
X172340949Y-57669063D01*
X172265302Y-57745855D01*
X172180139Y-57830618D01*
X172170535Y-57840078D01*
X172063210Y-57944011D01*
X171980385Y-58020325D01*
X171920395Y-58070429D01*
X171881577Y-58095730D01*
X171864480Y-58098996D01*
X171839527Y-58084750D01*
X171787745Y-58051844D01*
X171714480Y-58003792D01*
X171625080Y-57944110D01*
X171524889Y-57876312D01*
X171501499Y-57860361D01*
X171169407Y-57633580D01*
X171019435Y-57701647D01*
X170928230Y-57741315D01*
X170830331Y-57781209D01*
X170746169Y-57813017D01*
X170742462Y-57814326D01*
X170676631Y-57838424D01*
X170625884Y-57858800D01*
X170601158Y-57871064D01*
X170601116Y-57871099D01*
X170593271Y-57893266D01*
X170579934Y-57947783D01*
X170562430Y-58028520D01*
X170542083Y-58129350D01*
X170520218Y-58244144D01*
X170518429Y-58253822D01*
X170496496Y-58372096D01*
X170476360Y-58479458D01*
X170459320Y-58569083D01*
X170446672Y-58634149D01*
X170439716Y-58667832D01*
X170439594Y-58668346D01*
X170435361Y-58682675D01*
X170427129Y-58693493D01*
X170409967Y-58701294D01*
X170378942Y-58706571D01*
X170329122Y-58709818D01*
X170255576Y-58711528D01*
X170153371Y-58712193D01*
X170017575Y-58712307D01*
X170000000Y-58712308D01*
X169860122Y-58712224D01*
G36*
X171896990Y-53176693D02*
G01*
X171942258Y-53213888D01*
X172005756Y-53270872D01*
X172082961Y-53343551D01*
X172169349Y-53427829D01*
X172197601Y-53455984D01*
X172489713Y-53748584D01*
X172267369Y-54074896D01*
X172199798Y-54175103D01*
X172140493Y-54265037D01*
X172092783Y-54339490D01*
X172059993Y-54393249D01*
X172045452Y-54421106D01*
X172045026Y-54423088D01*
X172052692Y-54449345D01*
X172073311Y-54502163D01*
X172103315Y-54572690D01*
X172124375Y-54619907D01*
X172163752Y-54710306D01*
X172200835Y-54801634D01*
X172229585Y-54878800D01*
X172237395Y-54902308D01*
X172259583Y-54965084D01*
X172281273Y-55013589D01*
X172293187Y-55031921D01*
X172319477Y-55043141D01*
X172376858Y-55059046D01*
X172457882Y-55077833D01*
X172555105Y-55097701D01*
X172598615Y-55105868D01*
X172709104Y-55126171D01*
X172815084Y-55145830D01*
X172906199Y-55162912D01*
X172972092Y-55175482D01*
X172984500Y-55177909D01*
X173087077Y-55198155D01*
X173087077Y-55625299D01*
X173086847Y-55765754D01*
X173085901Y-55872021D01*
X173083859Y-55948987D01*
X173080338Y-56001540D01*
X173074957Y-56034567D01*
X173067334Y-56052955D01*
X173057088Y-56061592D01*
X173052885Y-56063193D01*
X173027530Y-56068873D01*
X172971516Y-56080205D01*
X172892036Y-56095821D01*
X172796288Y-56114353D01*
X172691467Y-56134431D01*
X172584768Y-56154688D01*
X172483387Y-56173754D01*
X172394521Y-56190261D01*
X172325363Y-56202841D01*
X172283111Y-56210125D01*
X172273710Y-56211384D01*
X172265193Y-56228237D01*
X172246340Y-56273130D01*
X172220676Y-56337570D01*
X172210877Y-56362808D01*
X172171352Y-56460314D01*
X172124808Y-56568041D01*
X172083123Y-56658828D01*
X172052450Y-56728247D01*
X172032044Y-56785290D01*
X172025232Y-56820223D01*
X172026318Y-56824905D01*
X172040715Y-56847009D01*
X172073588Y-56896169D01*
X172121410Y-56967152D01*
X172180652Y-57054722D01*
X172247785Y-57153643D01*
X172261059Y-57173170D01*
X172338954Y-57288860D01*
X172396213Y-57376956D01*
X172435119Y-57441514D01*
X172457956Y-57486589D01*
X172467006Y-57516237D01*
X172464552Y-57534515D01*
X172464489Y-57534631D01*
X172445173Y-57558639D01*
X172402449Y-57605053D01*
X172340949Y-57669063D01*
X172265302Y-57745855D01*
X172180139Y-57830618D01*
X172170535Y-57840078D01*
X172063210Y-57944011D01*
X171980385Y-58020325D01*
X171920395Y-58070429D01*
X171881577Y-58095730D01*
X171864480Y-58098996D01*
X171839527Y-58084750D01*
X171787745Y-58051844D01*
X171714480Y-58003792D01*
X171625080Y-57944110D01*
X171524889Y-57876312D01*
X171501499Y-57860361D01*
X171169407Y-57633580D01*
X171019435Y-57701647D01*
X170928230Y-57741315D01*
X170830331Y-57781209D01*
X170746169Y-57813017D01*
X170742462Y-57814326D01*
X170676631Y-57838424D01*
X170625884Y-57858800D01*
X170601158Y-57871064D01*
X170601116Y-57871099D01*
X170593271Y-57893266D01*
X170579934Y-57947783D01*
X170562430Y-58028520D01*
X170542083Y-58129350D01*
X170520218Y-58244144D01*
X170518429Y-58253822D01*
X170496496Y-58372096D01*
X170476360Y-58479458D01*
X170459320Y-58569083D01*
X170446672Y-58634149D01*
X170439716Y-58667832D01*
X170439594Y-58668346D01*
X170435361Y-58682675D01*
X170427129Y-58693493D01*
X170409967Y-58701294D01*
X170378942Y-58706571D01*
X170329122Y-58709818D01*
X170255576Y-58711528D01*
X170153371Y-58712193D01*
X170017575Y-58712307D01*
X170000000Y-58712308D01*
X169860122Y-58712224D01*
X169754388Y-58711645D01*
X169677868Y-58710078D01*
X169625628Y-58707028D01*
X169592737Y-58702004D01*
X169574263Y-58694511D01*
X169565273Y-58684056D01*
X169560837Y-58670147D01*
X169560406Y-58668346D01*
X169553667Y-58635855D01*
X169541192Y-58571748D01*
X169524281Y-58482849D01*
X169504229Y-58375981D01*
X169482336Y-58257967D01*
X169481571Y-58253822D01*
X169459641Y-58138169D01*
X169439123Y-58035986D01*
X169421341Y-57953402D01*
X169407619Y-57896544D01*
X169399282Y-57871542D01*
X169398884Y-57871099D01*
X169374323Y-57858890D01*
X169323685Y-57838544D01*
X169257905Y-57814455D01*
X169257539Y-57814326D01*
X169174683Y-57783182D01*
X169077000Y-57743509D01*
X168984923Y-57703619D01*
X168980566Y-57701647D01*
X168830593Y-57633580D01*
X168498502Y-57860361D01*
X168396626Y-57929496D01*
X168304343Y-57991303D01*
X168226997Y-58042267D01*
X168169936Y-58078873D01*
X168138505Y-58097606D01*
X168135521Y-58098996D01*
X168112679Y-58092810D01*
X168070018Y-58062965D01*
X168005872Y-58008053D01*
X167918579Y-57926666D01*
X167829465Y-57840078D01*
X167743559Y-57754753D01*
X167666673Y-57676892D01*
X167603436Y-57611303D01*
X167558477Y-57562795D01*
X167536424Y-57536175D01*
X167535604Y-57534805D01*
X167533166Y-57516537D01*
X167542350Y-57486705D01*
X167565426Y-57441279D01*
X167604663Y-57376230D01*
X167662330Y-57287530D01*
X167739205Y-57173343D01*
X167807430Y-57072838D01*
X167868418Y-56982697D01*
X167918644Y-56908151D01*
X167954584Y-56854435D01*
X167972713Y-56826782D01*
X167973854Y-56824905D01*
X167971641Y-56798410D01*
X167954862Y-56746914D01*
X167926858Y-56680149D01*
X167916878Y-56658828D01*
X167873328Y-56563841D01*
X167826866Y-56456063D01*
X167789123Y-56362808D01*
X167761927Y-56293594D01*
X167740325Y-56240994D01*
X167727842Y-56213503D01*
X167726291Y-56211384D01*
X167703332Y-56207876D01*
X167649214Y-56198262D01*
X167571132Y-56183911D01*
X167476281Y-56166193D01*
X167371857Y-56146475D01*
X167265056Y-56126126D01*
X167163074Y-56106514D01*
X167073106Y-56089009D01*
X167002347Y-56074978D01*
X166957994Y-56065791D01*
X166947115Y-56063193D01*
X166935878Y-56056782D01*
X166927395Y-56042303D01*
X166921286Y-56014867D01*
X166917168Y-55969589D01*
X166914659Y-55901580D01*
X166913379Y-55805953D01*
X166912946Y-55677820D01*
X166912923Y-55625299D01*
X166912923Y-55198155D01*
X167015500Y-55177909D01*
X167072569Y-55166930D01*
X167157731Y-55150905D01*
X167260628Y-55131767D01*
X167370904Y-55111449D01*
X167401385Y-55105868D01*
X167503145Y-55086083D01*
X167591795Y-55066627D01*
X167659892Y-55049303D01*
X167699996Y-55035912D01*
X167706677Y-55031921D01*
X167723081Y-55003658D01*
X167746601Y-54948891D01*
X167772684Y-54878412D01*
X167777858Y-54863231D01*
X167812044Y-54769104D01*
X167854477Y-54662899D01*
X167896003Y-54567527D01*
X167896208Y-54567084D01*
X167965360Y-54417475D01*
X167510488Y-53748383D01*
X167802500Y-53455884D01*
X167890820Y-53368830D01*
X167971375Y-53292091D01*
X168039640Y-53229763D01*
X168091092Y-53185944D01*
X168121206Y-53164730D01*
X168125526Y-53163384D01*
X168150889Y-53173984D01*
X168202642Y-53203453D01*
X168275132Y-53248295D01*
X168362706Y-53305016D01*
X168457388Y-53368538D01*
X168553484Y-53433332D01*
X168639163Y-53489713D01*
X168708984Y-53534212D01*
X168757506Y-53563361D01*
X168779218Y-53573692D01*
X168805707Y-53564950D01*
X168855938Y-53541913D01*
X168919549Y-53509369D01*
X168926292Y-53505751D01*
X169011954Y-53462790D01*
X169070694Y-53441721D01*
X169107228Y-53441497D01*
X169126269Y-53461072D01*
X169126380Y-53461346D01*
X169135898Y-53484528D01*
X169158597Y-53539559D01*
X169192718Y-53622178D01*
X169236500Y-53728128D01*
X169288184Y-53853148D01*
X169346008Y-53992980D01*
X169402009Y-54128363D01*
X169463553Y-54277766D01*
X169520061Y-54416168D01*
X169569839Y-54539327D01*
X169611194Y-54642998D01*
X169642432Y-54722941D01*
X169661859Y-54774912D01*
X169667846Y-54794308D01*
X169652832Y-54816557D01*
X169613561Y-54852018D01*
X169561193Y-54891113D01*
X169412059Y-55014755D01*
X169295489Y-55156478D01*
X169212882Y-55313296D01*
X169165634Y-55482225D01*
X169155143Y-55660278D01*
X169162769Y-55742461D01*
X169204318Y-55912969D01*
X169275877Y-56063541D01*
X169373005Y-56192691D01*
X169491266Y-56298936D01*
X169626220Y-56380790D01*
X169773429Y-56436768D01*
X169928456Y-56465385D01*
X170086861Y-56465156D01*
X170244206Y-56434595D01*
X170396054Y-56372218D01*
X170537965Y-56276540D01*
X170597197Y-56222428D01*
X170710797Y-56083480D01*
X170789894Y-55931639D01*
X170835014Y-55771333D01*
X170846684Y-55606988D01*
X170825431Y-55443029D01*
X170771780Y-55283882D01*
X170686260Y-55133975D01*
X170569395Y-54997733D01*
X170438807Y-54891113D01*
X170384412Y-54850358D01*
X170345986Y-54815282D01*
X170332154Y-54794274D01*
X170339397Y-54771365D01*
X170359995Y-54716635D01*
X170392254Y-54634328D01*
X170434479Y-54528685D01*
X170484977Y-54403950D01*
X170542052Y-54264364D01*
X170598146Y-54128330D01*
X170660033Y-53978799D01*
X170717356Y-53840233D01*
X170768356Y-53716893D01*
X170811273Y-53613036D01*
X170844347Y-53532920D01*
X170865819Y-53480805D01*
X170873775Y-53461346D01*
X170892571Y-53441577D01*
X170928926Y-53441635D01*
X170987521Y-53462559D01*
X171073032Y-53505387D01*
X171073708Y-53505751D01*
X171138093Y-53538988D01*
X171190139Y-53563198D01*
X171219488Y-53573596D01*
X171220783Y-53573692D01*
X171242876Y-53563145D01*
X171291652Y-53533816D01*
X171361669Y-53489173D01*
X171447486Y-53432686D01*
X171542612Y-53368538D01*
X171639460Y-53303589D01*
X171726747Y-53247104D01*
X171798819Y-53202579D01*
X171850023Y-53173510D01*
X171874474Y-53163384D01*
X171896990Y-53176693D01*
G37*
%TO.C,10K*%
D11*
X179480000Y-49880000D02*
X179480000Y-53720000D01*
X179480000Y-53720000D02*
X181320000Y-53720000D01*
X180400000Y-48930000D02*
X180400000Y-49880000D01*
X180400000Y-54670000D02*
X180400000Y-53720000D01*
X181320000Y-49880000D02*
X179480000Y-49880000D01*
X181320000Y-53720000D02*
X181320000Y-49880000D01*
%TO.C,3K*%
X175080000Y-49870000D02*
X175080000Y-53710000D01*
X175080000Y-53710000D02*
X176920000Y-53710000D01*
X176000000Y-48920000D02*
X176000000Y-49870000D01*
X176000000Y-54660000D02*
X176000000Y-53710000D01*
X176920000Y-49870000D02*
X175080000Y-49870000D01*
X176920000Y-53710000D02*
X176920000Y-49870000D01*
%TO.C,10K*%
X177280000Y-49880000D02*
X177280000Y-53720000D01*
X177280000Y-53720000D02*
X179120000Y-53720000D01*
X178200000Y-48930000D02*
X178200000Y-49880000D01*
X178200000Y-54670000D02*
X178200000Y-53720000D01*
X179120000Y-49880000D02*
X177280000Y-49880000D01*
X179120000Y-53720000D02*
X179120000Y-49880000D01*
%TO.C,SD Flash*%
X166890000Y-59290000D02*
X175110000Y-59290000D01*
X166890000Y-60035000D02*
X166890000Y-59290000D01*
X166890000Y-65710000D02*
X166890000Y-64965000D01*
X175110000Y-59290000D02*
X175110000Y-60035000D01*
X175110000Y-64965000D02*
X175110000Y-65710000D01*
X175110000Y-65710000D02*
X166890000Y-65710000D01*
X166390000Y-60590000D02*
X166060000Y-60830000D01*
X166060000Y-60350000D01*
X166390000Y-60590000D01*
G36*
X166390000Y-60590000D02*
G01*
X166060000Y-60830000D01*
X166060000Y-60350000D01*
X166390000Y-60590000D01*
G37*
%TD*%
M02*
