%TF.GenerationSoftware,KiCad,Pcbnew,10.0.5*%
%TF.CreationDate,2026-08-18T19:31:55+01:00*%
%TF.ProjectId,leapsd,6c656170-7364-42e6-9b69-6361645f7063,rev?*%
%TF.SameCoordinates,Original*%
%TF.FileFunction,Copper,L1,Top*%
%TF.FilePolarity,Positive*%
%FSLAX46Y46*%
G04 Gerber Fmt 4.6, Leading zero omitted, Abs format (unit mm)*
G04 Created by KiCad (PCBNEW 10.0.5) date 2026-08-18 19:31:55*
%MOMM*%
%LPD*%
G01*
G04 APERTURE LIST*
G04 Aperture macros list*
%AMRoundRect*
0 Rectangle with rounded corners*
0 $1 Rounding radius*
0 $2 $3 $4 $5 $6 $7 $8 $9 X,Y pos of 4 corners*
0 Add a 4 corners polygon primitive as box body*
4,1,4,$2,$3,$4,$5,$6,$7,$8,$9,$2,$3,0*
0 Add four circle primitives for the rounded corners*
1,1,$1+$1,$2,$3*
1,1,$1+$1,$4,$5*
1,1,$1+$1,$6,$7*
1,1,$1+$1,$8,$9*
0 Add four rect primitives between the rounded corners*
20,1,$1+$1,$2,$3,$4,$5,0*
20,1,$1+$1,$4,$5,$6,$7,0*
20,1,$1+$1,$6,$7,$8,$9,0*
20,1,$1+$1,$8,$9,$2,$3,0*%
G04 Aperture macros list end*
%TA.AperFunction,NonConductor*%
%ADD10C,0.250000*%
%TD*%
%TA.AperFunction,NonConductor*%
%ADD11C,0.200000*%
%TD*%
%TA.AperFunction,SMDPad,CuDef*%
%ADD12R,0.001000X0.001000*%
%TD*%
%TA.AperFunction,ConnectorPad*%
%ADD13R,1.000000X8.000000*%
%TD*%
%TA.AperFunction,ComponentPad*%
%ADD14C,1.400000*%
%TD*%
%TA.AperFunction,ComponentPad*%
%ADD15O,1.400000X1.400000*%
%TD*%
%TA.AperFunction,SMDPad,CuDef*%
%ADD16RoundRect,0.150000X-0.450000X-0.150000X0.450000X-0.150000X0.450000X0.150000X-0.450000X0.150000X0*%
%TD*%
%TA.AperFunction,ViaPad*%
%ADD17C,0.800000*%
%TD*%
%TA.AperFunction,Conductor*%
%ADD18C,0.200000*%
%TD*%
%TA.AperFunction,Conductor*%
%ADD19C,0.250000*%
%TD*%
G04 APERTURE END LIST*
D10*
X164000000Y-60500000D02*
X164000000Y-67500000D01*
X164000000Y-67500000D02*
X182000000Y-67500000D01*
X164500000Y-62000000D02*
X164500000Y-67000000D01*
X164500000Y-62000000D02*
X167500000Y-62000000D01*
X164500000Y-67000000D02*
X182000000Y-67000000D01*
X167000000Y-60500000D02*
X164000000Y-60500000D01*
D11*
X167250000Y-66000000D02*
X167250000Y-64500000D01*
D10*
X174750000Y-60500000D02*
X180000000Y-60500000D01*
X177500000Y-64500000D02*
X175000000Y-64500000D01*
D11*
X177500000Y-66000000D02*
X167250000Y-66000000D01*
D10*
X182000000Y-67000000D02*
X182500000Y-67000000D01*
X182000000Y-67500000D02*
X182500000Y-67500000D01*
X184000000Y-64500000D02*
X189000000Y-64500000D01*
X188750000Y-50000000D02*
X188750000Y-60500000D01*
X188750000Y-50000000D02*
X191100000Y-48000000D01*
X188750000Y-60500000D02*
X185500000Y-60500000D01*
X191100000Y-48000000D02*
X191100000Y-47000000D01*
D12*
%TO.P,1,0*%
%TO.N,N/C*%
X159900000Y-39200000D03*
X197600000Y-39200000D03*
D13*
%TO.P,1,1*%
X159900000Y-39200000D03*
%TO.P,1,2*%
X161200000Y-39200000D03*
%TO.P,1,3*%
X162500000Y-39200000D03*
%TO.P,1,4*%
X163800000Y-39200000D03*
%TO.P,1,5*%
X165100000Y-39200000D03*
%TO.P,1,6*%
X166400000Y-39200000D03*
%TO.P,1,7*%
X167700000Y-39200000D03*
%TO.P,1,8*%
X169000000Y-39200000D03*
%TO.P,1,9*%
X170300000Y-39200000D03*
%TO.P,1,10*%
X171600000Y-39200000D03*
%TO.P,1,11*%
X172900000Y-39200000D03*
%TO.P,1,12*%
X174200000Y-39200000D03*
%TO.P,1,13*%
X175500000Y-39200000D03*
%TO.P,1,14*%
X176800000Y-39200000D03*
%TO.P,1,15*%
X178100000Y-39200000D03*
%TO.P,1,16*%
X179400000Y-39200000D03*
%TO.P,1,17*%
X180700000Y-39200000D03*
%TO.P,1,18*%
X182000000Y-39200000D03*
%TO.P,1,19*%
X183300000Y-39200000D03*
%TO.P,1,20*%
X184600000Y-39200000D03*
%TO.P,1,21*%
X185900000Y-39200000D03*
%TO.P,1,22*%
X187200000Y-39200000D03*
%TO.P,1,23*%
X188500000Y-39200000D03*
%TO.P,1,24*%
X189800000Y-39200000D03*
%TO.P,1,25*%
X191100000Y-39200000D03*
%TO.P,1,26*%
X192400000Y-39200000D03*
%TO.P,1,27*%
X193700000Y-39200000D03*
%TO.P,1,28*%
X195000000Y-39200000D03*
%TO.P,1,29*%
X196300000Y-39200000D03*
%TO.P,1,30*%
X197600000Y-39200000D03*
%TD*%
D14*
%TO.P,10K,1*%
%TO.N,N/C*%
X197400000Y-60010000D03*
D15*
%TO.P,10K,2*%
X197400000Y-52390000D03*
%TD*%
D14*
%TO.P,10K,1*%
%TO.N,N/C*%
X180400000Y-55610000D03*
D15*
%TO.P,10K,2*%
X180400000Y-47990000D03*
%TD*%
D14*
%TO.P,3K,1*%
%TO.N,N/C*%
X176000000Y-55600000D03*
D15*
%TO.P,3K,2*%
X176000000Y-47980000D03*
%TD*%
D14*
%TO.P,10K,1*%
%TO.N,N/C*%
X178200000Y-55610000D03*
D15*
%TO.P,10K,2*%
X178200000Y-47990000D03*
%TD*%
D16*
%TO.P,SD Flash,1*%
%TO.N,N/C*%
X167250000Y-60595000D03*
%TO.P,SD Flash,2*%
X167250000Y-61865000D03*
%TO.P,SD Flash,3*%
X167250000Y-63135000D03*
%TO.P,SD Flash,4*%
X167250000Y-64405000D03*
%TO.P,SD Flash,5*%
X174750000Y-64405000D03*
%TO.P,SD Flash,6*%
X174750000Y-63135000D03*
%TO.P,SD Flash,7*%
X174750000Y-61865000D03*
%TO.P,SD Flash,8*%
X174750000Y-60595000D03*
%TD*%
D17*
%TO.N,*%
X185400000Y-57800000D03*
X169000000Y-44800000D03*
X177500000Y-64500000D03*
X190600000Y-58600000D03*
X181600000Y-58600000D03*
X184000000Y-64500000D03*
X178200000Y-44800000D03*
X180000000Y-60500000D03*
X182000000Y-44000000D03*
X197600000Y-44800000D03*
X191100000Y-44800000D03*
X188000000Y-44000000D03*
X185500000Y-60500000D03*
X192400000Y-44000000D03*
X185400000Y-57800000D03*
%TD*%
%TO.N,*%
D18*
X197400000Y-60010000D02*
X197400000Y-61600000D01*
D19*
X193800000Y-54800000D02*
X193200000Y-55400000D01*
X197600000Y-44800000D02*
X197600000Y-39200000D01*
X186800000Y-58400000D02*
X185100000Y-58400000D01*
X189500000Y-67000000D02*
X182500000Y-67000000D01*
X185400000Y-57800000D02*
X186600000Y-57800000D01*
X196300000Y-39200000D02*
X196300000Y-54300000D01*
X182000000Y-44000000D02*
X182000000Y-39200000D01*
X184800000Y-57200000D02*
X180600000Y-57200000D01*
X191400000Y-53200000D02*
X189200000Y-53200000D01*
X188000000Y-44000000D02*
X187600000Y-44400000D01*
D18*
X197400000Y-61600000D02*
X193400000Y-61600000D01*
D19*
X184800000Y-57200000D02*
X186400000Y-57200000D01*
X187600000Y-44400000D02*
X187000000Y-44400000D01*
X187000000Y-51200000D02*
X187600000Y-51800000D01*
X190855000Y-67500000D02*
X182500000Y-67500000D01*
X179935000Y-61865000D02*
X184600000Y-57200000D01*
X188200000Y-57800000D02*
X187000000Y-59000000D01*
X191100000Y-39200000D02*
X191100000Y-44800000D01*
X189200000Y-60200000D02*
X189200000Y-64300000D01*
X195400000Y-54400000D02*
X193400000Y-54400000D01*
X187600000Y-50800000D02*
X188200000Y-51400000D01*
X193700000Y-39200000D02*
X193700000Y-43700000D01*
X187600000Y-45200000D02*
X187600000Y-50800000D01*
X192800000Y-63700000D02*
X189500000Y-67000000D01*
X191600000Y-53000000D02*
X191400000Y-53200000D01*
X187000000Y-59000000D02*
X185500000Y-59000000D01*
X189800000Y-39200000D02*
X189800000Y-43000000D01*
X193700000Y-43700000D02*
X191600000Y-45800000D01*
X180600000Y-57200000D02*
X180400000Y-57000000D01*
X176000000Y-58600000D02*
X181600000Y-58600000D01*
X187600000Y-51800000D02*
X187600000Y-57600000D01*
X193200000Y-55400000D02*
X193200000Y-61800000D01*
X193400000Y-54400000D02*
X192800000Y-55000000D01*
X186800000Y-51600000D02*
X186400000Y-51600000D01*
X189200000Y-64300000D02*
X189000000Y-64500000D01*
X179000000Y-63135000D02*
X179615000Y-63135000D01*
D18*
X193400000Y-61600000D02*
X193200000Y-61800000D01*
D19*
X195800000Y-43800000D02*
X195800000Y-54000000D01*
X189200000Y-53200000D02*
X189200000Y-60200000D01*
X174750000Y-63135000D02*
X179615000Y-63135000D01*
X176000000Y-55600000D02*
X176000000Y-58600000D01*
X195200000Y-43600000D02*
X195400000Y-43800000D01*
X186600000Y-57000000D02*
X186400000Y-57200000D01*
X191100000Y-44800000D02*
X191100000Y-47400000D01*
X178000000Y-66500000D02*
X165000000Y-66500000D01*
X197400000Y-45000000D02*
X197600000Y-44800000D01*
X195400000Y-43800000D02*
X195800000Y-43800000D01*
X195800000Y-54000000D02*
X195400000Y-54400000D01*
X187200000Y-57200000D02*
X187200000Y-52000000D01*
X197400000Y-50400000D02*
X197400000Y-45000000D01*
X186600000Y-52400000D02*
X186600000Y-57000000D01*
X195000000Y-43400000D02*
X195200000Y-43600000D01*
X179615000Y-63135000D02*
X184950000Y-57800000D01*
X185900000Y-51900000D02*
X186000000Y-52000000D01*
X190600000Y-60000000D02*
X190400000Y-60200000D01*
X186400000Y-51600000D02*
X186400000Y-44000000D01*
X184950000Y-57800000D02*
X185400000Y-57800000D01*
X187200000Y-52000000D02*
X186800000Y-51600000D01*
X186200000Y-52000000D02*
X186600000Y-52400000D01*
X186000000Y-52000000D02*
X186200000Y-52000000D01*
X192400000Y-39200000D02*
X192400000Y-44000000D01*
X169000000Y-39200000D02*
X169000000Y-44800000D01*
X187200000Y-43600000D02*
X187200000Y-39200000D01*
X196300000Y-54300000D02*
X195800000Y-54800000D01*
X176000000Y-47980000D02*
X178190000Y-47980000D01*
X188500000Y-39200000D02*
X188500000Y-43500000D01*
X188200000Y-51400000D02*
X188200000Y-57800000D01*
X189800000Y-43000000D02*
X187600000Y-45200000D01*
X178190000Y-47980000D02*
X178200000Y-47990000D01*
X190400000Y-60200000D02*
X189200000Y-60200000D01*
D18*
X197400000Y-52390000D02*
X197400000Y-50400000D01*
D19*
X195000000Y-39200000D02*
X195000000Y-43400000D01*
X165000000Y-66500000D02*
X165000000Y-63135000D01*
X193200000Y-61800000D02*
X193200000Y-65155000D01*
X185100000Y-58400000D02*
X177500000Y-66000000D01*
X186600000Y-57800000D02*
X187200000Y-57200000D01*
X192800000Y-55000000D02*
X192800000Y-63700000D01*
X165000000Y-63135000D02*
X167250000Y-63135000D01*
X187600000Y-57600000D02*
X186800000Y-58400000D01*
X185900000Y-39200000D02*
X185900000Y-51900000D01*
X190600000Y-58600000D02*
X190600000Y-60000000D01*
X187000000Y-43800000D02*
X187200000Y-43600000D01*
X184600000Y-57200000D02*
X184800000Y-57200000D01*
X174750000Y-61865000D02*
X179935000Y-61865000D01*
X187000000Y-44400000D02*
X187000000Y-51200000D01*
X182000000Y-44000000D02*
X181900000Y-44100000D01*
X191600000Y-45800000D02*
X191600000Y-53000000D01*
X188500000Y-43500000D02*
X188000000Y-44000000D01*
X180400000Y-47990000D02*
X178200000Y-47990000D01*
X186600000Y-43800000D02*
X187000000Y-43800000D01*
X197400000Y-51400000D02*
X197400000Y-50400000D01*
X180400000Y-57000000D02*
X180400000Y-55610000D01*
X178200000Y-47990000D02*
X178200000Y-44800000D01*
X195800000Y-54800000D02*
X193800000Y-54800000D01*
X194600000Y-62200000D02*
X194565000Y-62235000D01*
X186400000Y-44000000D02*
X186600000Y-43800000D01*
X193200000Y-65155000D02*
X190855000Y-67500000D01*
X185500000Y-59000000D02*
X178000000Y-66500000D01*
%TD*%
M02*
