%TF.GenerationSoftware,KiCad,Pcbnew,10.0.5*%
%TF.CreationDate,2026-08-18T19:31:57+01:00*%
%TF.ProjectId,leapsd,6c656170-7364-42e6-9b69-6361645f7063,rev?*%
%TF.SameCoordinates,Original*%
%TF.FileFunction,Soldermask,Top*%
%TF.FilePolarity,Negative*%
%FSLAX46Y46*%
G04 Gerber Fmt 4.6, Leading zero omitted, Abs format (unit mm)*
G04 Created by KiCad (PCBNEW 10.0.5) date 2026-08-18 19:31:57*
%MOMM*%
%LPD*%
G01*
G04 APERTURE LIST*
G04 Aperture macros list*
%AMRoundRect*
0 Rectangle with rounded corners*
0 $1 Rounding radius*
0 $2 $3 $4 $5 $6 $7 $8 $9 X,Y pos of 4 corners*
0 Add a 4 corners polygon primitive as box body*
4,1,4,$2,$3,$4,$5,$6,$7,$8,$9,$2,$3,0*
0 Add four circle primitives for the rounded corners*
1,1,$1+$1,$2,$3*
1,1,$1+$1,$4,$5*
1,1,$1+$1,$6,$7*
1,1,$1+$1,$8,$9*
0 Add four rect primitives between the rounded corners*
20,1,$1+$1,$2,$3,$4,$5,0*
20,1,$1+$1,$4,$5,$6,$7,0*
20,1,$1+$1,$6,$7,$8,$9,0*
20,1,$1+$1,$8,$9,$2,$3,0*%
G04 Aperture macros list end*
%ADD10R,0.001000X0.001000*%
%ADD11R,1.000000X8.000000*%
%ADD12C,1.400000*%
%ADD13O,1.400000X1.400000*%
%ADD14C,1.500000*%
%ADD15RoundRect,0.150000X-0.450000X-0.150000X0.450000X-0.150000X0.450000X0.150000X-0.450000X0.150000X0*%
G04 APERTURE END LIST*
D10*
%TO.C,1*%
X159900000Y-39200000D03*
X197600000Y-39200000D03*
D11*
X159900000Y-39200000D03*
X161200000Y-39200000D03*
X162500000Y-39200000D03*
X163800000Y-39200000D03*
X165100000Y-39200000D03*
X166400000Y-39200000D03*
X167700000Y-39200000D03*
X169000000Y-39200000D03*
X170300000Y-39200000D03*
X171600000Y-39200000D03*
X172900000Y-39200000D03*
X174200000Y-39200000D03*
X175500000Y-39200000D03*
X176800000Y-39200000D03*
X178100000Y-39200000D03*
X179400000Y-39200000D03*
X180700000Y-39200000D03*
X182000000Y-39200000D03*
X183300000Y-39200000D03*
X184600000Y-39200000D03*
X185900000Y-39200000D03*
X187200000Y-39200000D03*
X188500000Y-39200000D03*
X189800000Y-39200000D03*
X191100000Y-39200000D03*
X192400000Y-39200000D03*
X193700000Y-39200000D03*
X195000000Y-39200000D03*
X196300000Y-39200000D03*
X197600000Y-39200000D03*
%TD*%
D12*
%TO.C,10K*%
X197400000Y-60010000D03*
D13*
X197400000Y-52390000D03*
%TD*%
D14*
%TO.C,REF\u002A\u002A*%
X198200000Y-65600000D03*
%TD*%
D12*
%TO.C,10K*%
X180400000Y-55610000D03*
D13*
X180400000Y-47990000D03*
%TD*%
D12*
%TO.C,3K*%
X176000000Y-55600000D03*
D13*
X176000000Y-47980000D03*
%TD*%
D12*
%TO.C,10K*%
X178200000Y-55610000D03*
D13*
X178200000Y-47990000D03*
%TD*%
D14*
%TO.C,REF\u002A\u002A*%
X159400000Y-65600000D03*
%TD*%
D15*
%TO.C,SD Flash*%
X167250000Y-60595000D03*
X167250000Y-61865000D03*
X167250000Y-63135000D03*
X167250000Y-64405000D03*
X174750000Y-64405000D03*
X174750000Y-63135000D03*
X174750000Y-61865000D03*
X174750000Y-60595000D03*
%TD*%
M02*
